<?xml version="1.0" encoding="utf-8"?>
<!-- Generator: Adobe Illustrator 22.1.0, SVG Export Plug-In . SVG Version: 6.00 Build 0)  -->
<svg version="1.1" id="Calque_1" xmlns="http://www.w3.org/2000/svg" xmlns:xlink="http://www.w3.org/1999/xlink" x="0px" y="0px"
	 width="100px" height="100px" viewBox="0 0 100 100" style="enable-background:new 0 0 100 100;" xml:space="preserve">
<path d="M98.8851,26.7013c-0.0243-0.7334-0.0506-1.4669-0.079-2.2003c-0.0578-1.4903-0.1645-2.9787-0.3198-4.462
	c-0.0738-0.7044-0.1721-1.4435-0.5939-2.0125c-0.6967-0.9399-2.0153-1.1094-3.1841-1.1611
	c-1.9804-0.0876-3.9639-0.0636-5.9461-0.0395c-14.9909,0-29.9713,0.1362-44.9674,0.1362c-4.4969,0-8.9938,0-13.4907,0
	c-6.9337,0-13.8656,0.074-20.7976-0.1652c-1.7953-0.062-3.6052-0.1383-5.3774,0.1561c-0.6749,0.1121-1.3697,0.2922-1.8835,0.744
	c-1.3599,1.1959-0.8658,3.5829-0.8737,5.1841c-0.0119,2.4134-0.0805,4.826-0.1637,7.2378
	c-0.1666,4.8243-0.3956,9.649-0.3539,14.4775c0.0708,8.202,0.3236,16.4017,0.3308,24.6044
	c0.0076,8.6514,5.3625,14.0291,13.9759,14.0367c11.6593,0.0152,23.3262,0.0228,34.9854,0.0228s23.3262-0.0076,34.9854-0.0228
	c8.4084-0.0152,13.8544-5.4537,13.8848-13.8544C99.0681,55.1531,99.3559,40.9262,98.8851,26.7013z M90.6069,22.7955
	c-3.6426,2.5502-7.2847,5.1005-10.9273,7.6507c-8.1506,5.7062-16.3012,11.4124-24.4517,17.1186
	c-4.132,2.9167-6.236,2.8939-10.2313,0.038c-5.3108-3.6511-10.482-7.5249-15.7172-11.2833
	c-5.7755-4.1463-11.551-8.2925-17.327-12.4393c-0.5037-0.3617-1.0074-0.723-1.5111-1.0848H90.6069z M93.1832,69.368
	c-0.0152,5.1726-2.8787,8.021-8.0666,8.0362c-23.3034,0.0304-46.6219,0.0304-69.9557,0c-5.3169-0.0076-8.1349-2.8408-8.1425-8.2109
	c-0.0304-13.8848-0.0152-27.781,0-41.6772l34.5753,24.8263c6.0613,4.3409,10.8238,4.3409,16.9914-0.0076l34.5981-24.3744
	l0.0076,2.5217C93.206,43.4442,93.2136,56.4023,93.1832,69.368z"/>
</svg>
