<?xml version="1.0" encoding="utf-8"?>
<!-- Generator: Adobe Illustrator 22.1.0, SVG Export Plug-In . SVG Version: 6.00 Build 0)  -->
<svg version="1.1" id="Calque_1" xmlns="http://www.w3.org/2000/svg" xmlns:xlink="http://www.w3.org/1999/xlink" x="0px" y="0px"
	 width="100px" height="100px" viewBox="0 0 100 100" style="enable-background:new 0 0 100 100;" xml:space="preserve">
<style type="text/css">
	.st0{fill:#808080;}
</style>
<path class="st0" d="M97.0091,11.6047c0,25.4481,0,50.8961,0,76.3442c-0.0692,0.2076-0.1545,0.4113-0.2052,0.6233
	c-0.9472,3.9594-3.3329,6.6191-7.1856,7.947C89.0743,96.7066,88.5119,96.841,87.958,97c-25.4481,0-50.8961,0-76.3442,0
	c-0.1754-0.0651-0.3459-0.1536-0.527-0.1918c-2.878-0.6074-5.2321-2.071-6.7532-4.5838c-0.7896-1.3045-1.1931-2.8428-1.771-4.2755
	c0-25.4481,0-50.8961,0-76.3442c0.0519-0.0795,0.1391-0.1542,0.1506-0.2391c0.6099-4.5013,4.81-8.8924,10.8903-8.8378
	C24.0251,2.6213,34.448,2.5536,44.8703,2.5536c13.7653,0,27.5306,0.001,41.2959-0.0005c3.8546-0.0004,6.9732,1.5095,9.0565,4.7573
	C96.0468,8.5951,96.4269,10.1648,97.0091,11.6047z M86.4826,81.2129c-7.9233-10.5639-15.7271-20.9684-23.577-31.4344
	c-6.1423,7.8951-12.2184,15.7052-18.3658,23.6069c-4.388-5.264-8.7332-10.4767-13.1183-15.7372
	c-6.1417,7.8974-12.1875,15.6716-18.3258,23.5647C37.6195,81.2129,61.9569,81.2129,86.4826,81.2129z"/>
</svg>
