<?xml version="1.0" encoding="utf-8"?>
<!-- Generator: Adobe Illustrator 22.1.0, SVG Export Plug-In . SVG Version: 6.00 Build 0)  -->
<svg version="1.1" id="Calque_1" xmlns="http://www.w3.org/2000/svg" xmlns:xlink="http://www.w3.org/1999/xlink" x="0px" y="0px"
	 width="100px" height="100px" viewBox="0 0 100 100" style="enable-background:new 0 0 100 100;" xml:space="preserve">
<style type="text/css">
	.st0{fill:#FFFFFF;}
</style>
<g id="XMLID_21_">
	<path class="st0" d="M58.7148,99.4663H33.2802V50.6822H25V30.554h8.2802c0.0825-9.4905,3.3286-17.8395,8.9404-22.9451
		c4.737-4.4839,11.8123-7.0753,19.3717-7.0753c4.2694,0,7.95,0.4594,11.2566,1.4002L75,2.5501l-1.0728,20.9892l-3.4551-1.0618
		c-1.7111-0.5254-3.5156-0.7813-5.5183-0.7813c-5.2597,0-6.3655,4.5912-6.3655,8.4425v0.4154h12.6761v20.1282H58.7148V99.4663z
		 M38.914,93.8325h14.167V45.0484h12.5495v-8.8606H52.9544v-6.0492c0-8.6818,4.5995-14.0763,11.9993-14.0763
		c1.2819,0,2.5143,0.0853,3.7027,0.2531l0.4842-9.4823c-2.2502-0.4484-4.7425-0.6657-7.5484-0.6657
		c-2.9049,0-10.2278,0.5419-15.537,5.5705c-4.4894,4.0823-7.1413,11.2373-7.1413,19.1736v5.2762h-8.2801v8.8606h8.2801V93.8325z"/>
</g>
</svg>
