<?xml version="1.0" encoding="utf-8"?>
<!-- Generator: Adobe Illustrator 22.1.0, SVG Export Plug-In . SVG Version: 6.00 Build 0)  -->
<svg version="1.1" id="Calque_1" xmlns="http://www.w3.org/2000/svg" xmlns:xlink="http://www.w3.org/1999/xlink" x="0px" y="0px"
	 width="100px" height="100px" viewBox="0 0 100 100" style="enable-background:new 0 0 100 100;" xml:space="preserve">
<style type="text/css">
	.st0{fill:none;}
	.st1{fill:#FFFFFF;}
</style>
<circle class="st0" cx="50" cy="50" r="32.6125"/>
<path class="st1" d="M80.4594,99H19.5406C9.3195,99,1.003,90.6835,1.003,80.4594V19.5406C1.003,9.3165,9.3195,1,19.5406,1h60.9188
	C90.6805,1,98.997,9.3165,98.997,19.5406v60.9188C98.997,90.6835,90.6805,99,80.4594,99z M19.5406,7.057
	c-6.8792,0-12.4807,5.6015-12.4807,12.4836v60.9188c0,6.8821,5.6015,12.4836,12.4807,12.4836h60.9188
	c6.8792,0,12.4807-5.6015,12.4807-12.4836V19.5406c0-6.8821-5.6015-12.4836-12.4807-12.4836H19.5406z M49.997,72.0541
	c-12.1613,0-22.0512-9.8929-22.0512-22.0541s9.8899-22.0541,22.0512-22.0541S72.0541,37.8387,72.0541,50
	S62.1583,72.0541,49.997,72.0541z M49.997,34.0028c-8.8193,0-15.9942,7.1749-15.9942,15.9972s7.1749,15.9972,15.9942,15.9972
	c8.8252,0,16.0001-7.1749,16.0001-15.9972S58.8222,34.0028,49.997,34.0028z M77.425,31.7995c-5.4418,0-9.8662-4.4274-9.8662-9.8662
	S71.9832,12.07,77.425,12.07c5.4418,0,9.8662,4.4244,9.8662,9.8633S82.8668,31.7995,77.425,31.7995z M77.425,18.1269
	c-2.0998,0-3.8093,1.7065-3.8093,3.8063s1.7094,3.8093,3.8093,3.8093s3.8093-1.7094,3.8093-3.8093S79.5248,18.1269,77.425,18.1269z"
	/>
</svg>
