<?xml version="1.0" encoding="utf-8"?>
<!-- Generator: Adobe Illustrator 22.1.0, SVG Export Plug-In . SVG Version: 6.00 Build 0)  -->
<svg version="1.1" id="Calque_1" xmlns="http://www.w3.org/2000/svg" xmlns:xlink="http://www.w3.org/1999/xlink" x="0px" y="0px"
	 width="100px" height="100px" viewBox="0 0 100 100" style="enable-background:new 0 0 100 100;" xml:space="preserve">
<g>
	<path d="M50.6332,98.5151c-0.247,0-0.494-0.0195-0.7474-0.065c-2.239-0.364-3.8021-2.2423-3.8021-4.5756v-32.042h-15.384
		c-1.5501,0-3.071-0.9099-3.8736-2.3268c-0.7507-1.3259-0.7442-2.8727,0.0162-4.1466L46.4931,4.3097
		c0.7507-2.0116,2.7882-3.136,5.0305-2.7492c2.1838,0.3965,3.7112,2.1968,3.7112,4.3806v32.2857H69.15
		c1.5339,0,2.9052,0.6792,3.7566,1.8588c0.8449,1.1699,1.0529,2.6712,0.572,4.1174L54.8448,95.4604
		C54.2274,97.3127,52.5505,98.5151,50.6332,98.5151z M48.5794,56.841h2.4958v34.3817L68.526,43.2183H50.2432V8.4596l-18.741,48.5829
		L48.5794,56.841z M51.1597,6.0841v0.0065C51.1597,6.0873,51.1597,6.0841,51.1597,6.0841z"/>
</g>
</svg>
