<?xml version="1.0" encoding="utf-8"?>
<!-- Generator: Adobe Illustrator 22.1.0, SVG Export Plug-In . SVG Version: 6.00 Build 0)  -->
<svg version="1.1" id="Calque_1" xmlns="http://www.w3.org/2000/svg" xmlns:xlink="http://www.w3.org/1999/xlink" x="0px" y="0px"
	 width="100px" height="100px" viewBox="0 0 100 100" style="enable-background:new 0 0 100 100;" xml:space="preserve">
<path d="M90.1755,89.1079c-0.6809-0.2575-1.3925-0.2908-2.0503-0.1325c-15.3621,3.6798-27.5569,2.4149-36.2862-3.7464
	c15.2397-7.2936,15.7701-21.6536,4.8095-37.0461C39.1419,23.5945,40.5011,2,40.5011,2S-1.8314,37.3731,9.5118,65.3453
	c5.4777,13.5057,16.7315,22.9057,29.6431,22.9057c1.5939,0,3.2107-0.1453,4.8454-0.4413c0.6835,0.6375,1.3974,1.2597,2.1472,1.8567
	C53.1043,95.2182,61.8361,98.0026,72.2333,98c5.3883,0,11.2306-0.7498,17.4966-2.2468c0.0075-0.0026,0.0179-0.0052,0.0179-0.0052
	c1.0788-0.2602,2.0173-1.0299,2.4433-2.1469C92.8737,91.8035,91.9734,89.7941,90.1755,89.1079z M46.2236,80.0343
	c-9.716-11.6236-9.7059-28.5542-9.7032-28.7477h-0.0026c0.0127-1.4154-0.8389-2.7544-2.2415-3.2871
	c-1.7953-0.6835-3.8074,0.2194-4.4909,2.0147c-0.1505,0.3953-0.222,0.8007-0.2246,1.2012h-0.0052
	c-0.0075,0.8288-0.0614,16.9126,8.8696,30.0534c-4.3966-0.1658-8.7266-1.8413-12.5621-4.8709
	c-4.1896-3.3102-7.6122-8.0356-9.8968-13.669c-1.9406-4.7863-1.8795-10.4452,0.1887-16.8131
	c1.8384-5.669,5.2175-11.8554,10.0447-18.3864c2.943-3.9807,6.0695-7.6021,8.9078-10.642
	c1.9739,9.3057,6.332,21.9415,15.8697,35.335c5.1434,7.2247,7.2042,13.8599,5.8041,18.6874
	c-1.0635,3.6543-4.2611,6.5921-9.512,8.7318C46.9199,79.782,46.5729,79.9119,46.2236,80.0343z"/>
</svg>
