<?xml version="1.0" encoding="utf-8"?>
<!-- Generator: Adobe Illustrator 22.1.0, SVG Export Plug-In . SVG Version: 6.00 Build 0)  -->
<svg version="1.1" id="Calque_1" xmlns="http://www.w3.org/2000/svg" xmlns:xlink="http://www.w3.org/1999/xlink" x="0px" y="0px"
	 width="162px" height="100px" viewBox="0 0 162 100" style="enable-background:new 0 0 162 100;" xml:space="preserve">
<style type="text/css">
	.st0{fill:#0071BC;}
	.st1{fill:#FFFFFF;}
	.st2{fill:#FF1D25;}
</style>
<g>
	<g>
		<path class="st0" d="M33.4498,95.8457V4.1543C14.5575,10.8431,1,28.8157,1,50C1,71.1841,14.5575,89.1569,33.4498,95.8457z"/>
		<path class="st1" d="M33.4498,4.1543v91.6914c5.0814,1.7992,10.5268,2.8291,16.2249,2.8291s11.1435-1.0299,16.2249-2.8291V4.1543
			c-5.0814-1.7992-10.5268-2.8291-16.2249-2.8291S38.5312,2.3552,33.4498,4.1543z"/>
		<path class="st2" d="M65.8997,4.1543v91.6914C84.792,89.1569,98.3495,71.1841,98.3495,50
			C98.3495,28.8157,84.792,10.8431,65.8997,4.1543z"/>
	</g>
	<path d="M144.5453,66.0568c-0.7727,0-1.514-0.3074-2.0604-0.8538l-12.5405-12.5412c-1.1384-1.1377-1.1384-2.9832,0-4.1209
		c1.1384-1.1384,2.9825-1.1384,4.1209,0l10.4801,10.4801l10.4801-10.4801c1.1384-1.1384,2.9825-1.1384,4.1209,0
		c1.1384,1.1377,1.1384,2.9832,0,4.1209L146.6057,65.203C146.0593,65.7495,145.318,66.0568,144.5453,66.0568z"/>
</g>
</svg>
