<?xml version="1.0" encoding="utf-8"?>
<!-- Generator: Adobe Illustrator 22.1.0, SVG Export Plug-In . SVG Version: 6.00 Build 0)  -->
<svg version="1.1" id="Calque_1" xmlns="http://www.w3.org/2000/svg" xmlns:xlink="http://www.w3.org/1999/xlink" x="0px" y="0px"
	 width="100px" height="100px" viewBox="0 0 100 100" style="enable-background:new 0 0 100 100;" xml:space="preserve">
<style type="text/css">
	.st0{fill:#FFFFFF;}
</style>
<g>
	<path class="st0" d="M1,9.4267c0.7499-1.6196,2.0354-2.1368,3.7798-2.1069c4.3699,0.0751,8.7419,0.0227,13.1131,0.0258
		c2.0739,0.0015,2.9227,0.6607,3.4555,2.695c0.9039,3.451,1.8271,6.8975,2.6762,10.3621c0.2098,0.8562,0.524,1.1491,1.4523,1.146
		c11.9328-0.0388,23.8659-0.0256,35.7988-0.0256c11.2949,0,22.5897-0.0001,33.8846,0.0004c0.3509,0,0.7032-0.0131,1.0525,0.0119
		c1.9886,0.1423,3.172,1.7294,2.6735,3.664c-1.8916,7.341-3.8066,14.6759-5.7128,22.0131
		c-1.6899,6.5048-3.3823,13.0089-5.0682,19.5147c-0.6352,2.4513-1.344,3.0075-3.885,3.0075
		c-16.7508,0-33.5017,0.0001-50.2525-0.0001c-2.2771,0-3.0936-0.6315-3.6595-2.8091c-4.5986-17.6952-9.1986-35.39-13.7994-53.0846
		c-0.0639-0.2457-0.1448-0.4869-0.2422-0.8114c-1.4621,0-2.9252,0-4.3883,0c-2.3611,0-4.7245-0.065-7.0824,0.0215
		C3.0554,13.1149,1.7697,12.5563,1,10.9583C1,10.4478,1,9.9372,1,9.4267z M25.8329,27.2461c0.714,2.742,1.375,5.3615,2.109,7.9605
		c0.066,0.2339,0.6029,0.4744,0.9224,0.4762c5.2275,0.0294,10.4551,0.022,15.6827,0.0175c0.2705-0.0002,0.5409-0.0477,0.785-0.0708
		c0-2.853,0-5.6087,0-8.3835C38.8297,27.2461,32.3981,27.2461,25.8329,27.2461z M90.3464,35.6567
		c0.7357-2.8379,1.4508-5.5965,2.1736-8.3848c-6.5614,0-13.0158,0-19.4866,0c0,2.8223,0,5.5803,0,8.3848
		C78.8118,35.6567,84.537,35.6567,90.3464,35.6567z M51.0798,55.6131c0,2.8349,0,5.5942,0,8.4109c5.4182,0,10.7827,0,16.186,0
		c0-2.8362,0-5.5972,0-8.4109C61.8692,55.6131,56.522,55.6131,51.0798,55.6131z M51.0843,35.6495c5.4411,0,10.7787,0,16.1522,0
		c0-2.829,0-5.6031,0-8.3931c-5.4175,0-10.7559,0-16.1522,0C51.0843,30.0589,51.0843,32.8131,51.0843,35.6495z M67.2599,41.4512
		c-5.4195,0-10.7832,0-16.1744,0c0,2.8243,0,5.5819,0,8.3791c5.422,0,10.7845,0,16.1744,0
		C67.2599,46.997,67.2599,44.2405,67.2599,41.4512z M45.3326,49.8515c0-2.8407,0-5.6249,0-8.4186c-5.2907,0-10.5112,0-15.8021,0
		c0.6675,2.5874,1.3369,5.1086,1.958,7.6416c0.1559,0.6359,0.4243,0.8555,1.0999,0.8495c3.9563-0.0351,7.9132-0.0162,11.8698-0.0195
		C44.7378,49.9042,45.0173,49.8714,45.3326,49.8515z M73.0229,49.8371c0.1879,0.0304,0.2819,0.0587,0.376,0.0588
		c3.5391,0.0053,7.0782,0.0089,10.6173,0.0108c2.6367,0.0014,2.6381,0.0007,3.2966-2.5586c0.5036-1.9574,1.0029-3.916,1.5133-5.9095
		c-5.3312,0-10.5457,0-15.8031,0C73.0229,44.2519,73.0229,47.0115,73.0229,49.8371z M45.3536,55.6104c-4.0641,0-8.0589,0-12.1431,0
		c0.6837,2.6178,1.3775,5.1605,1.9957,7.7215c0.1564,0.6479,0.4527,0.7845,1.0479,0.7777c2.2924-0.0263,4.5853-0.0106,6.8779-0.0106
		c0.7248,0,1.4497,0,2.2216,0C45.3536,61.2261,45.3536,58.4684,45.3536,55.6104z M85.1449,55.6117c-4.1335,0-8.1051,0-12.1021,0
		c0,2.8345,0,5.6172,0,8.4849c3.1811,0,6.3001,0.0086,9.4188-0.0196c0.2053-0.0019,0.5399-0.2492,0.592-0.4423
		C83.7658,60.9969,84.4387,58.3487,85.1449,55.6117z"/>
	<path class="st0" d="M67.3307,82.4878c-0.1458-5.4957,4.4072-10.2804,9.9366-10.4423c5.7019-0.1669,10.5125,4.2923,10.6614,9.8828
		c0.1564,5.8703-4.2837,10.594-10.1022,10.7473C72.1966,92.824,67.4835,88.2492,67.3307,82.4878z M77.6823,86.9982
		c2.5423-0.0163,4.6127-2.0779,4.6349-4.6152c0.0224-2.5586-2.0906-4.678-4.6695-4.6834c-2.5911-0.0055-4.6698,2.0758-4.6641,4.6701
		C72.9894,84.9556,75.0799,87.0149,77.6823,86.9982z"/>
	<path class="st0" d="M30.4294,82.3896c-0.025-5.6715,4.5493-10.3099,10.2085-10.3516c5.7121-0.0421,10.3517,4.5513,10.3788,10.2756
		c0.027,5.7053-4.6123,10.3737-10.3033,10.3678C35.0624,92.6756,30.4543,88.064,30.4294,82.3896z M40.6957,86.9975
		c2.5906,0.0105,4.7005-2.0724,4.7019-4.6416c0.0013-2.5681-2.1168-4.6686-4.6952-4.6563c-2.5472,0.0122-4.6224,2.065-4.6513,4.6012
		C36.0218,84.8735,38.112,86.9871,40.6957,86.9975z"/>
</g>
</svg>
