<?xml version="1.0" encoding="utf-8"?>
<!-- Generator: Adobe Illustrator 22.1.0, SVG Export Plug-In . SVG Version: 6.00 Build 0)  -->
<svg version="1.1" id="Calque_1" xmlns="http://www.w3.org/2000/svg" xmlns:xlink="http://www.w3.org/1999/xlink" x="0px" y="0px"
	 width="900px" height="600px" viewBox="0 0 900 600" style="enable-background:new 0 0 900 600;" xml:space="preserve">
<style type="text/css">
	.st0{fill:#E7E7E7;}
	.st1{fill:#FFFFFF;}
	.st2{fill:#1D1D1B;}
</style>
<g>
	<g>
		<path class="st0" d="M621.4478,304.9153c-1.567-10.5245-8.4216-18.342-14.6075-26.5567c-3.37-4.4752-6.5415-9.0682-8.5516-14.2811
			c-1.8477-4.7917-2.7142-10.1432-6.0043-14.0865c-2.746-3.291-6.8217-5.1398-10.8343-6.6467
			c-26.3604-9.8994-52.623-6.5506-79.8594-3.4386c-36.9608,4.223-75.4059,2.6549-112.7804,6.6876
			c15.8913,2.4818,31.9601,3.8219,48.0135,4.6806c13.053,0.6982,26.2289,1.0843,39.1158-1.1057
			c6.5964-1.1209,13.0846-2.9123,19.7409-3.5918c6.3299-0.6462,12.7203-0.2767,19.053,0.3414
			c11.2704,1.1001,22.5959,3.0251,32.9772,7.5486c5.9528,2.5938,11.7573,6.2395,15.0853,11.8151
			c3.4694,5.8126,3.8035,13.062,2.4375,19.6921c-2.0198,9.8031-7.2958,18.0742-14.2726,24.8997
			c-8.326,8.1455-19.0742,14.2321-29.6004,18.4065c-16.6447,6.6009-34.5341,9.3116-52.257,11.8641
			c-38.835,5.5931-77.9569,10.668-117.1724,9.4089c-12.538-0.4025-25.1453-1.4687-37.2267-4.8452
			c-4.4841-1.2532-9.0669-2.9395-12.238-6.3485c-2.5599-2.752-3.9485-6.3557-5.5408-9.7603
			c-4.0421-8.6426-9.7661-16.4849-16.7177-23.0184c-4.403,13.494-2.1483,27.8831,11.8737,40.6196
			c28.5867,25.966,72.1257,13.3398,106.2191,10.3892c56.8278-4.9181,114.5956,10.4324,170.7575,0.4612
			c10.3442-1.8365,20.6913-4.5875,29.7165-9.9653C613.155,339.5165,623.9924,322.0058,621.4478,304.9153z"/>
		<path class="st1" d="M296.9254,329.599c1.5923,3.4045,2.9809,7.0083,5.5408,9.7603c3.1711,3.4091,7.7539,5.0953,12.238,6.3485
			c12.0815,3.3765,24.6888,4.4426,37.2267,4.8452c39.2155,1.259,78.3375-3.8159,117.1724-9.4089
			c17.7229-2.5525,35.6124-5.2632,52.257-11.8641c10.5262-4.1744,21.2744-10.261,29.6004-18.4065
			c6.9767-6.8254,12.2528-15.0966,14.2726-24.8997c1.366-6.6301,1.0319-13.8795-2.4375-19.6921
			c-3.3279-5.5756-9.1325-9.2213-15.0853-11.8151c-10.3813-4.5234-21.7067-6.4485-32.9772-7.5486
			c-6.3327-0.6182-12.7231-0.9877-19.053-0.3414c-6.6563,0.6795-13.1445,2.4709-19.7409,3.5918
			c-12.887,2.1899-26.0628,1.8039-39.1158,1.1057c-16.0533-0.8587-32.1222-2.1988-48.0135-4.6806
			c-20.7687,2.241-41.2079,6.2047-60.8751,13.8688c-19.4373,7.5745-41.1088,25.8347-47.7274,46.1185
			C287.1593,313.114,292.8834,320.9563,296.9254,329.599z"/>
	</g>
	<path class="st2" d="M329.6816,298.2786c-4.0412-3.2925-8.0826-6.5849-12.1238-9.8774c-0.6671-0.5435-1.7238-0.1127-1.7565,0.7618
		c-0.0128,0.3435,0.1047,0.6774,0.2281,0.9982c0.9601,2.4946,2.3803,4.8013,3.2205,7.3389c0.036,0.1089,0.0711,0.2253,0.0623,0.3375
		c-0.0024,0.0308-0.0082,0.0613-0.0181,0.0913c-0.0336,0.1013-0.111,0.1811-0.186,0.2571c-0.7903,0.8006-1.528,1.5789-2.1805,2.4986
		c-0.749,1.0556-1.3997,2.1788-1.9608,3.3448c-0.3267,0.6788,0.1902,1.6609,1.0161,1.5513
		c5.0997-0.6772,9.4971-2.4572,13.5777-5.6021C330.0862,299.5735,330.2581,298.7479,329.6816,298.2786z"/>
</g>
</svg>
