<?xml version="1.0" encoding="utf-8"?>
<!-- Generator: Adobe Illustrator 22.1.0, SVG Export Plug-In . SVG Version: 6.00 Build 0)  -->
<svg version="1.1" id="Calque_1" xmlns="http://www.w3.org/2000/svg" xmlns:xlink="http://www.w3.org/1999/xlink" x="0px" y="0px"
	 width="768px" height="768px" viewBox="0 0 768 768" style="enable-background:new 0 0 768 768;" xml:space="preserve">
<path d="M354.4872,315.8425c-0.6929-0.0733-1.1839-0.2064-1.659-0.1635c-10.7413,0.9702-10.1473-5.1823-9.2941-12.7678
	c0.3566-3.1703,3.1244-4.1545,6.1521-4.3593c2.2622-0.153,4.6863,0.8918,6.6775-1.753c0.6692-0.8888,3.7021-0.2263,5.589,0.1033
	c1.4803,0.2586,2.8551,1.5889,4.284,1.6013c14.4907,0.1252,28.9832,0.1279,43.4738,0.0003
	c1.4608-0.0128,2.8665-1.3692,4.3793-1.6322c1.8863-0.3278,4.8792-0.9669,5.5886-0.0596c1.7148,2.1928,3.6464,1.713,5.6396,1.753
	c5.586,0.112,7.4607,1.9221,7.5132,7.3888c0.0838,8.7166-0.3468,9.1131-11.0117,9.9214c2.1366,0.9592,4.2018,1.6174,5.9774,2.7354
	c4.7823,3.0112,7.2757,7.4414,7.2969,13.1305c0.039,10.4938,0.0168,20.9879,0.02,31.4818c0.0004,1.2142,0.0001,2.4284,0.0001,3.8227
	c1.0982,0.107,1.8148,0.2025,2.5345,0.243c5.8206,0.3278,8.2449,2.8271,8.2917,8.7714c0.058,7.3703,0.0178,14.7415,0.0183,22.1122
	c0.0005,7.8705-0.0024,15.741-0.0014,23.6115c0.0011,9.3664-1.2788,10.8366-10.6063,11.9319
	c-0.1559,1.5321-0.1892,3.1428-0.5005,4.6978c-1.424,7.1116-7.5359,12.4019-14.8853,12.4396
	c-21.2372,0.1093-42.4759,0.1324-63.7127-0.0059c-8.9736-0.0584-14.2195-6.027-15.3993-16.8329
	c-0.183-0.1367-0.3628-0.3848-0.5679-0.4078c-8.6847-0.9713-10.1253-2.5836-10.1245-11.3923
	c0.0012-14.2416,0.0088-28.4833,0.0098-42.7249c0.0007-10.075,0.7648-10.9984,10.9226-12.6495c0-2.9853-0.0002-6.0661,0-9.1469
	c0.0005-7.3708-0.0034-14.7416,0.0028-22.1124C341.1054,323.8702,343.7283,319.961,354.4872,315.8425z M410.4165,365.2275
	c-15.1872,0-30.4294,0-45.3898,0c-0.002,3.958,2.5827,7.8859-2.0633,10.7316c-0.6053,0.3708-0.5963,2.0022-0.6029,3.0514
	c-0.0475,7.4969-0.0066,14.9943-0.0324,22.4913c-0.0152,4.4453-1.999,6.9239-5.5089,7.0035c-3.6513,0.0828-5.8095-2.5-5.829-7.1075
	c-0.0318-7.497,0.002-14.9944-0.0258-22.4914c-0.0036-0.9738,0.1349-2.5297-0.374-2.8299
	c-4.9569-2.9239-2.2474-7.1146-1.9939-10.9976c-1.816,0-3.6294,0-5.6291,0c-0.0659,1.3169-0.1682,2.4135-0.1686,3.5101
	c-0.0083,21.7418-0.0172,43.4836,0.0018,65.2254c0.0086,9.7896,5.5719,15.3711,15.3206,15.3794
	c19.8675,0.0168,39.735,0.0127,59.6025,0.0007c10.1436-0.0061,15.6877-5.5795,15.6957-15.8056
	c0.0169-21.4918,0.0075-42.9836-0.002-64.4754c-0.0005-1.211-0.0993-2.422-0.1606-3.8227c-2.4054,0-4.5719,0-6.8114,0
	c1.0906,3.5443,2.0729,6.7794-0.2725,10.0291c-0.9061,1.2555-1.8317,2.8522-1.8715,4.3174
	c-0.1967,7.2417-0.0699,14.4916-0.1173,21.7382c-0.0314,4.79-1.9766,7.2773-5.5894,7.3328c-3.597,0.0553-5.677-2.5164-5.6996-7.1976
	c-0.0355-7.372,0.009-14.7445-0.0341-22.1165c-0.0063-1.0799,0.0674-2.7704-0.534-3.14
	C407.5461,373.1161,409.8101,369.2141,410.4165,365.2275z M342.874,362.7911c2.9465,0,5.3882,0,8.1045,0
	c0-1.984-0.0306-3.714,0.0052-5.4425c0.1896-9.17-1.6177-7.791,8.2484-7.9962c2.552-0.0531,3.2295,1.0332,3.1317,3.3712
	c-0.1392,3.3265-0.0354,6.6633-0.0354,10.1264c17.0125,0,33.5641,0,50.6533,0c0-4.497,0-8.8039,0-13.4593
	c3.1321,0,5.7404,0.0826,8.3407-0.026c2.0984-0.0877,2.9344,0.7711,2.8886,2.8467c-0.0763,3.4614-0.0208,6.9257-0.0208,10.6133
	c3.2678,0,6.0596,0,9.0646,0c0-11.1455,0.3912-22.1214-0.1449-33.0518c-0.3283-6.6927-6.355-11.7203-12.9593-11.7531
	c-21.361-0.106-42.7232-0.1084-64.0842-0.0037c-6.7697,0.0332-12.8375,5.3625-13.085,12.0688
	C342.582,340.9093,342.874,351.759,342.874,362.7911z M413.8372,300.8192c-17.5868,0-34.4748,0-50.7357,0
	c0,4.4332,0,8.5074,0,12.8286c-0.2559-0.1894-0.1576-0.0529-0.0587-0.0525c16.1037,0.0681,32.2074,0.1502,48.3112,0.1643
	c3.1133,0.0027,2.211-1.8627,1.7815-3.8194c-0.3954-1.8011-0.185-3.7579-0.0804-5.6372
	C413.1128,303.268,413.5022,302.2513,413.8372,300.8192z M435.2829,431.1757c6.6205,0.8445,8.7992-0.9829,8.8096-7.0785
	c0.0222-13.0929,0.0133-26.1858-0.0047-39.2787c-0.0016-1.1786-0.1622-2.3571-0.2377-3.3831c-3.1547,0-5.83,0-8.5672,0
	C435.2829,398.152,435.2829,414.5728,435.2829,431.1757z M340.8672,431.0651c0-16.4661,0-32.977,0-49.6426
	c-2.954,0-5.726,0-8.7747,0c0,14.6058-0.0284,28.9309,0.0142,43.2559C332.1234,430.2953,334.7985,432.2531,340.8672,431.0651z
	 M352.7357,375.9678c0,9.1394-0.0416,17.8571,0.0268,26.574c0.0191,2.4317,1.2552,4.0526,3.8971,4.063
	c2.3871,0.0094,3.8693-1.33,3.8954-3.6424c0.1011-8.9428,0.041-17.8875,0.041-26.9946
	C357.8642,375.9678,355.5422,375.9678,352.7357,375.9678z M422.3412,376.0466c-2.7595,0-5.0531,0-7.6288,0
	c0,9.1044-0.0157,17.9572,0.0103,26.8098c0.0071,2.4164,1.3202,3.7166,3.726,3.7371c2.62,0.0225,3.8838-1.4269,3.8876-3.9882
	C422.3491,393.863,422.3412,385.1207,422.3412,376.0466z M356.0615,301.1024c-0.4401-0.4368-0.8801-0.8736-1.3202-1.3103
	c-3.0449,0.8323-7.4241,0.754-8.779,2.7396c-1.5138,2.2184-1.4586,7.1497,0.1036,9.3346c1.3928,1.9481,5.7728,1.7605,8.8345,2.5153
	c0.3232-0.3571,0.6463-0.7141,0.9694-1.0712C353.9049,309.2167,353.0364,305.1362,356.0615,301.1024z M421.3632,314.5951
	c3.1196-0.9407,7.434-0.9729,8.7692-2.9836c1.4804-2.2293,1.4131-7.138-0.1625-9.2584c-1.4366-1.9333-5.7936-1.6965-8.6066-2.356
	C421.3632,305.0948,421.3632,309.1774,421.3632,314.5951z M360.223,351.2854c-2.4278,0-4.7381,0-6.9386,0
	c0,4.7148,0,9.2198,0,13.7247c2.565-3.5546,4.546-1.9008,6.9386,0.8916C360.223,360.5618,360.223,356.0978,360.223,351.2854z
	 M421.9661,365.9208c0-5.5443,0-10.0914,0-14.6418c-2.4729,0-4.6662,0-6.7784,0c0,4.7223,0,9.2379,0,13.7535
	C417.605,361.6559,419.5783,362.8774,421.9661,365.9208z M332.5413,379.1732c2.7477,0,5.5134,0,8.3448,0c0-3.4553,0-6.6322,0-9.7769
	C333.5067,368.3276,331.1135,371.1675,332.5413,379.1732z M435.4028,369.2285c0,3.48,0,6.7523,0,9.9957c2.9779,0,5.666,0,8.3158,0
	C444.8875,371.1005,442.9022,368.6784,435.4028,369.2285z M364.8831,316.0685c0,0.0225,0,0.0451,0,0.0676
	c15.2466,0,30.4933,0,45.7399,0c0-0.0225,0-0.0451,0-0.0676C395.3763,316.0685,380.1297,316.0685,364.8831,316.0685z
	 M418.3298,371.8644c0.7452,0,1.5087,0.1033,2.2311-0.025c0.9993-0.1776,1.9954-0.4673,2.9174-0.8782
	c0.1284-0.0572-0.2154-1.5837-0.2691-1.5792c-1.1277,0.0946-2.2393,0.4084-3.3662,0.4753c-0.9408,0.0559-1.898-0.1414-2.8464-0.2404
	c-1.0399-0.1086-2.0792-0.2936-3.1153-0.2729c-0.128,0.0026-0.475,1.4684-0.3102,1.5664c0.7618,0.453,1.6501,0.7549,2.5291,0.9298
	C416.8168,371.9828,417.5847,371.8691,418.3298,371.8644z M356.3291,371.8577c0.8704,0,1.761,0.1158,2.6056-0.032
	c0.8767-0.1534,1.7607-0.4753,2.519-0.9284c0.1621-0.0969-0.1725-1.5582-0.3293-1.5679c-0.9199-0.057-1.853,0.1919-2.7852,0.2192
	c-1.1339,0.0333-2.2715-0.0432-3.4069-0.0864c-0.935-0.0356-1.8804-0.1783-2.7934-0.0595
	c-0.1631,0.0212-0.4557,1.4263-0.2288,1.6035c0.5905,0.4611,1.419,0.6918,2.1859,0.8309
	C354.8182,371.968,355.583,371.8651,356.3291,371.8577z M361.3413,303.689c-0.8232-1.9785-1.5698-3.7727-2.3164-5.5669
	c-0.6114,1.0685-1.5431,2.0748-1.7653,3.2189C356.8396,303.5039,357.4341,305.0832,361.3413,303.689z M356.5104,310.5725
	c0.8409,1.9752,1.6043,3.7684,2.3677,5.5616c0.5818-1.0837,1.4574-2.1101,1.6823-3.2634
	C360.9881,310.6764,360.3622,309.1657,356.5104,310.5725z M414.6725,301.125c0.9321,1.3535,1.5761,2.2885,2.2201,3.2236
	c0.5937-1.0678,1.605-2.1161,1.656-3.2091c0.045-0.966-0.9802-1.9819-1.5329-2.9757
	C416.3242,299.0376,415.6328,299.9115,414.6725,301.125z M414.9366,310.5672c0.6649,1.8486,1.3244,3.6826,1.984,5.5165
	c0.5785-1.1201,1.4569-2.1867,1.6685-3.3723C418.9485,310.6985,418.4093,309.1737,414.9366,310.5672z M362.0042,307.8105
	c0.0186-0.3514,0.0371-0.7029,0.0557-1.0544c-2.0973,0-4.1946,0-6.292,0c-0.0065,0.3515-0.013,0.703-0.0195,1.0544
	C357.8336,307.8105,359.9189,307.8105,362.0042,307.8105z"/>
<path d="M291.3119,387.6414c2.8834-0.5612,5.5522-1.0805,8.6012-1.6739c0.1133,1.3688,0.2773,2.4357,0.2784,3.5027
	c0.0152,15.366-0.0441,30.7323,0.0587,46.0976c0.0171,2.5526-0.5768,3.7395-3.3131,4.2481
	c-6.3696,1.1838-12.5994,3.3732-19.0022,4.0419c-4.8322,0.5047-9.9979-0.1006-14.7469-1.2863
	c-12.7392-3.1806-24.9553-0.851-37.1865,2.423c-0.8409,0.2251-1.6994,0.3988-2.56,0.528c-0.3488,0.0524-0.7252-0.0785-1.3094-0.1547
	c0-17.5739,0-35.1348,0-53.0623c8.1733-1.8008,16.2361-4.4271,24.4599-5.1071c6.0513-0.5005,12.2988,1.6617,18.4859,2.4157
	c4.4063,0.537,8.8564,0.7235,13.2907,1.0094c0.4192,0.027,0.8647-0.3547,1.2626-0.5309c-1.207-7.2512,0.1999-10.4302,4.7185-10.8772
	C288.6359,378.7914,291.0449,381.5782,291.3119,387.6414z M274.6517,427.3542c0-9.5707,0.0774-18.7941-0.1342-28.0108
	c-0.0187-0.8139-1.8368-2.0952-2.9686-2.2896c-5.8982-1.013-11.8438-1.7507-17.7749-2.5704
	c-1.9856-0.2744-3.9769-0.5081-5.9655-0.7604c-0.1312,0.4759-0.2625,0.9518-0.3937,1.4277
	c2.3039,0.8809,4.7641,1.4948,6.8639,2.7242c1.7988,1.0532,3.4661,2.6101,4.6812,4.3093c1.475,2.0626,2.2203,4.6368,3.6282,6.7596
	c2.4763,3.7337,2.8044,7.2136,0.5443,9.6075c-2.2317,2.3638-4.5575,2.1187-8.858-0.9038c-0.5041-0.3543-1.2139-0.9836-1.5966-0.8452
	c-1.7146,0.6206-4.6929,1.3455-4.7797,2.263c-0.4435,4.691-0.1331,9.4532-0.0864,14.1906c3.0115,0.6313,6.0232,1.2621,9.0345,1.8945
	c0.4887,0.1027,0.9715,0.2413,1.4643,0.3156c5.3062,0.8008,10.6139,1.5922,15.9211,2.386c-2.5735-2.254-7.9932-0.8747-7.1569-6.3929
	C267.637,427.7484,271.062,427.5049,274.6517,427.3542z M228.2571,437.701c5.6025-1.2437,10.8137-2.3824,16.011-3.5812
	c0.5463-0.126,1.4335-0.5883,1.448-0.9253c0.1442-3.3578,0.4854-6.7741-0.0056-10.0577c-0.1823-1.2189-2.3348-2.2557-3.7309-3.1552
	c-2.2969-1.4799-4.7543-2.5683-5.1233-5.8999c-0.1981-1.7888-1.0014-3.7719-2.1585-5.1351
	c-1.999-2.3551-2.2212-4.7697-0.1712-6.6444c2.4104-2.2044,5.4325-3.7436,8.2061-5.5452c1.0975-0.7129,2.2404-1.3559,3.3626-2.0307
	c-0.1532-0.3365-0.3064-0.6729-0.4596-1.0094c-5.7651,1.2881-11.5302,2.5761-17.3786,3.8827
	C228.2571,410.9234,228.2571,423.9876,228.2571,437.701z M276.5872,436.4875c0.1598,0.4208,0.3196,0.8417,0.4794,1.2625
	c5.1724-1.2078,10.3607-2.3548,15.4982-3.6964c0.6819-0.1781,1.5699-1.3396,1.5783-2.055
	c0.1071-9.0595,0.0704-18.1207,0.0704-26.2798c-3.0627,0.2705-6.2419,1.5104-8.3954,0.5201
	c-3.3632-1.5465-6.0314-4.6042-9.0075-7.0325c0,7.7805,0,15.5503,0,23.7704c0.8986-0.5339,1.4001-0.8477,1.916-1.1357
	c2.9252-1.6326,5.6265-1.2227,7.7099,1.3246c2.0459,2.5015,2.2415,5.4946,0.026,7.8665c-1.6195,1.7339-3.9275,2.8708-6.0392,4.0806
	C279.2628,435.7776,277.8734,436.0424,276.5872,436.4875z M223.8059,393.7834c0,16.6657,0,33.0932,0,49.8778
	c6.9667-1.5446,13.6684-2.9509,20.3092-4.6024c0.8414-0.2093,1.3631-1.7038,2.0329-2.6029
	c-0.2763-0.2202-0.5527-0.4404-0.829-0.6606c-6.143,1.3242-12.286,2.6484-18.649,4.02c0-14.9084,0-29.2167,0-43.6544
	c5.7823-1.3234,11.389-2.5212,16.9345-3.9557c0.984-0.2545,1.7131-1.4944,2.5599-2.2794c-0.2868-0.3261-0.5737-0.6522-0.8606-0.9784
	C238.1386,390.5592,230.9734,392.171,223.8059,393.7834z M247.693,416.0704c3.7554-2.2416,6.4453-1.1256,9.1341,1.2975
	c0.8704,0.7845,3.1127,1.1396,3.9739,0.5639c1.0716-0.7163,1.8829-2.6134,1.8492-3.9769c-0.0362-1.4588-1.0903-2.9452-1.8764-4.3185
	c-0.857-1.4973-2.6216-2.8116-2.7657-4.3224c-0.6264-6.5711-6.0542-6.0186-10.3152-8.0027
	C247.693,403.7609,247.693,409.5952,247.693,416.0704z M295.6394,391.397c0.2008,0.7822,0.4241,1.2482,0.4251,1.7147
	c0.0287,13.2204,0.09,26.4415-0.0653,39.66c-0.0117,0.9996-1.4222,2.5712-2.4694,2.8694c-4.7854,1.3626-9.6978,2.2744-14.504,3.5724
	c-1.0024,0.2708-1.7481,1.4921-2.6121,2.2753c0.2667,0.3008,0.5333,0.6017,0.8,0.9026c7.0061-1.5838,14.0123-3.1676,21.1111-4.7724
	c0-16.5812,0-32.8798,0-49.6937c-3.2929,1.4756-7.3806,0.1036-9.7665,4.5057C291.2648,392.0358,293.4126,391.7222,295.6394,391.397z
	 M245.6364,419.8456c0-7.6241,0-14.8212,0-22.8898c-3.4253,2.0501-6.4358,3.5159-9.034,5.5171
	c-1.9501,1.502-2.5107,3.6031-0.1383,5.6569c0.9768,0.8457,2.2701,2.3039,2.129,3.3008
	C237.8089,416.9716,242.0838,417.7824,245.6364,419.8456z M277.902,396.6345c1.4428,1.9588,2.0644,3.2052,3.0433,4.025
	c1.1064,0.9265,2.7648,1.2327,3.7801,2.2222c3.6511,3.5585,6.3606,3.2054,8.2491-1.5962c0.9062-2.304,1.076-4.8977,1.5792-7.3602
	c-0.3511-0.2724-0.7022-0.5448-1.0534-0.8172c-2.8457,1.1219-5.6914,2.2438-8.9448,3.5264
	C283.1908,396.6345,281.1415,396.6345,277.902,396.6345z M274.2193,442.5184c0.2253-0.3852,0.4506-0.7705,0.6759-1.1557
	c-0.7874-0.6213-1.4911-1.5785-2.3782-1.7992c-2.4124-0.6003-4.8981-0.9165-7.3624-1.2954
	c-5.7352-0.8821-11.4749-1.7348-17.2128-2.5995c-0.2366,0.3886-0.4732,0.7773-0.7097,1.1659
	c0.7734,0.6895,1.4446,1.7434,2.3408,1.9945c2.0261,0.5677,4.1596,0.7638,6.2558,1.0667
	C261.9572,440.7815,268.0888,441.6457,274.2193,442.5184z M276.5717,433.8458c0.2998,0.3141,0.5995,0.6282,0.8993,0.9423
	c2.5329-1.5563,5.3468-2.8025,7.5126-4.7642c1.833-1.6603,1.7709-4.5476-0.2865-5.9148c-1.3616-0.9048-4.1031-0.9388-5.6247-0.1704
	C274.5696,426.2126,277.2446,430.4723,276.5717,433.8458z M274.0825,395.5423c0.2689-0.3701,0.5378-0.7403,0.8067-1.1105
	c-0.7549-0.6111-1.4418-1.6312-2.2752-1.7698c-8.1773-1.3601-16.379-2.5734-24.5738-3.8284
	c-0.2558,0.3088-0.5116,0.6176-0.7674,0.9264c0.7197,0.7647,1.3521,2.0786,2.1726,2.2091
	C257.64,393.2718,265.8656,394.3796,274.0825,395.5423z M284.9625,395.3031c1.7404-3.4463,3.457-5.8428,4.095-8.4983
	c0.3618-1.5057-0.5999-3.93-1.8015-5.0123c-0.8918-0.8033-3.7438-0.7591-4.6161,0.0708c-1.1698,1.113-2.0207,3.5214-1.6642,5.0627
	C281.5713,389.5009,283.2315,391.8296,284.9625,395.3031z M274.5065,429.4713c-2.8839-0.2837-5.6442-0.2243-5.5996,2.8063
	c0.0157,1.0652,3.2071,2.0837,5.5996,3.5124C274.5065,432.8997,274.5065,431.3481,274.5065,429.4713z"/>
<path d="M456.3604,279.5166c0.6931-0.6425,1.1009-1.1151,1.5957-1.4642c4.3807-3.091,8.7769-6.1602,13.5186-9.481
	c1.6815,2.1125,3.2611,4.097,5.3434,6.713c0-4.457,0-8.2288,0-12.5783c6.1018,0,11.807-0.09,17.4991,0.1425
	c0.5549,0.0226,1.4622,2.0301,1.4728,3.1234c0.1098,11.2441-0.0101,22.4909,0.1474,33.7339
	c0.0258,1.8437,0.7206,3.9128,1.736,5.4659c3.7564,5.7457,8.0041,11.1797,11.5839,17.0267c1.3914,2.2726,2.3877,5.454,2.0331,8.0089
	c-1.2853,9.2596-3.1749,18.4377-4.9255,27.6297c-1.1679,6.1319-5.931,9.402-11.6741,8.1763
	c-5.1508-1.0992-8.1084-6.1148-7.0262-11.8646c0.9215-4.8957,1.8094-9.7977,2.8764-15.5882
	c-1.5619,1.4451-2.5504,2.3031-3.4752,3.2248c-4.6904,4.6745-9.3084,9.4232-14.0604,14.034
	c-4.4284,4.2969-10.0925,4.3697-13.9908,0.3535c-3.9223-4.0409-3.6367-9.6821,0.6981-13.9877
	c4.9641-4.9307,10.0386-9.7589,14.8035-14.8753c1.2924-1.3878,2.0511-3.5922,2.3502-5.5305
	c1.3217-8.5658-0.9461-15.9796-6.7329-22.6793c-4.3857-5.0775-7.8538-10.9483-11.7195-16.4736
	C457.7181,281.6319,457.0746,280.6012,456.3604,279.5166z M493.9606,323.0471c0-13.5314,0-26.842,0-40.3285
	c-5.1358,0-10.0436,0-15.3379,0c0,1.5039-0.0002,2.7215,0,3.939c0.0013,10.232-0.2541,20.473,0.1062,30.6923
	c0.1966,5.5763-0.5544,10.3637-5.3027,13.8548c-0.1558,0.1146-0.1501,0.4488-0.2962,0.9351
	c3.5261,3.3036,7.1329,6.6831,11.4951,10.7701c1.035-2.3914,2.7773-4.418,2.3579-5.7783
	C484.5858,329.3557,485.923,326.2424,493.9606,323.0471z M504.8498,318.6885c-2.7382-3.9126-5.5294-7.901-8.3207-11.8895
	c-0.6754,3.92-0.5603,7.5145-0.7003,11.0991c-0.257,6.5779,1.5584,13.5126-3.13,19.3891c-0.0864,0.1083,0.1128,0.4445,0.2771,1.0174
	c4.7246,0.6708,9.5874,1.3611,15.4196,2.1891c-0.4228-2.4412-0.0809-5.1379-1.1659-5.9667
	C500.666,329.5128,499.956,326.1251,504.8498,318.6885z M457.424,349.173c1.0285,2.191,1.5337,4.0336,2.619,5.4231
	c2.4284,3.1091,7.6188,3.6643,10.3555,1.0839c3.0498-2.8756,0.3446-5.4448-0.9651-7.9004
	c-0.6093-1.1424-1.7269-2.2567-2.8875-2.8043c-1.688-0.7963-4.2142-2.0253-5.3165-1.3441
	C459.5069,344.6956,458.6772,347.2048,457.424,349.173z M496.7867,364.4827c3.6976,0.0608,7.7164-3.1854,7.7587-6.2671
	c0.0323-2.3522-5.2691-5.5562-9.2906-5.6148c-4.1525-0.0605-6.1735,1.338-6.1513,4.2567
	C489.1347,360.9534,492.6218,364.4142,496.7867,364.4827z M491.1217,345.1004c-0.3398,2.3589-0.6248,4.3371-0.9682,6.7209
	c5.8679-2.0801,10.4763-0.3377,14.9882,3.0448c0.4214-2.606,0.767-4.7426,1.1546-7.1397
	C501.2378,346.851,496.5113,346.0331,491.1217,345.1004z M468.9077,337.9489c-2.0412,1.1859-3.7321,2.1682-5.8527,3.4003
	c6.0693,1.9643,9.0427,5.8466,10.326,10.4132c1.7232-1.4848,3.3704-2.9042,4.7831-4.1215
	C474.7092,344.0234,471.3553,340.5116,468.9077,337.9489z M468.8839,294.4738c2.6234,3.7107,4.9867,7.0536,7.7998,11.0329
	c0-5.9819,0-10.9743,0-16.5019C473.9439,290.9259,471.6316,292.5472,468.8839,294.4738z M464.85,288.5194
	c3.6134-2.5375,6.7882-4.9265,10.1275-7.058c2.3657-1.51,2.4393-2.84,0.0903-4.6602c-4.0721,2.869-8.1744,5.7594-12.3887,8.7286
	C463.479,286.6314,464.0477,287.4145,464.85,288.5194z M493.8542,277.1981c-5.1498,0-10.051,0-14.9347,0
	c-0.1667,3.2533-0.1681,3.3264,2.3056,3.3759c3.4653,0.0692,6.9372-0.0874,10.3984,0.05
	C494.2267,280.7274,494.563,279.5016,493.8542,277.1981z M493.9849,271.8015c-5.1857,0-10.1903,0-15.1595,0
	c0,1.2043,0,2.1425,0,3.1788c5.1941,0,10.1967,0,15.1595,0C493.9849,273.7775,493.9849,272.8331,493.9849,271.8015z
	 M506.7014,345.9571c0.1208-1.5195,0.2025-2.5477,0.3033-3.8144c-4.9991-0.704-9.7402-1.3718-14.7326-2.0749
	c-0.2412,1.1921-0.4379,2.1637-0.666,3.2913C496.6612,344.2292,501.394,345.0437,506.7014,345.9571z M493.7192,324.3364
	c-2.2374,2.0162-4.6302,3.2384-5.408,5.126c-0.8431,2.0461-0.1813,4.7123-0.174,7.8777
	C493.7322,334.1748,494.7662,330.3294,493.7192,324.3364z M506.0182,320.8627c-4.3791,5.0768-2.8533,10.5071,2.9067,11.6682
	C510.9309,328.0193,509.4692,324.3504,506.0182,320.8627z M482.7471,343.5943c-3.9417-3.6775-7.5532-7.0469-11.3517-10.5908
	c-0.7915,0.999-1.4236,1.7967-1.4583,1.8405c3.5154,3.9507,6.7166,7.5482,10.0379,11.2808
	C480.9069,345.2741,481.6166,344.6263,482.7471,343.5943z M480.8455,269.5696c3.0184,0,5.8148,0,8.5298,0
	c0.2624-1.5358,0.4759-2.7853,0.6894-4.0349c0.2812-0.002,0.5624-0.004,0.8436-0.006c0.2447,1.2309,0.4894,2.4617,0.7341,3.6925
	c0.1244-0.024,0.2487-0.0479,0.3731-0.0719c-0.0726-1.4317-0.1451-2.8634-0.2593-5.1158c-3.9052,0.722-7.4024,1.3685-10.9106,2.0171
	C480.8455,267.1504,480.8455,268.2649,480.8455,269.5696z M469.6407,278.3656c-0.1767-2.3685-0.3011-4.0353-0.4144-5.5551
	c-6.1946,2.4654-8.6104,6.3007-5.7749,9.9255c0.9041-0.6123,1.8289-1.2141,2.7274-1.8529
	C467.4791,279.9586,468.7604,279.0073,469.6407,278.3656z M466.1805,289.7751c-0.0688,0.4288-0.1376,0.8575-0.2064,1.2863
	c1.0334,0.3605,2.2794,1.2863,3.0659,0.9904c5.3148-1.9995,8.1727-5.7305,7.2496-9.3534
	C472.8696,285.0925,469.525,287.4338,466.1805,289.7751z"/>
<path d="M393.291,530.8984c-12.2178-0.5849-22.0391-10.1163-22.5371-22.2948c-0.4669-11.4155,8.4159-22.0003,19.9777-22.7129
	c24.9214-1.536,48.8331-7.0363,71.6208-17.204c6.7088-2.9934,13.1333-6.6227,19.6947-9.9476
	c15.278-7.7419,33.066,3.201,32.4525,19.9592c-0.3874,10.5822-8.8708,19.9713-19.4487,20.9156
	c-32.5072,2.9022-63.1092,11.8401-91.5738,27.9866C400.4365,529.3253,396.703,529.8285,393.291,530.8984z M482.5237,481.1262
	c-4.7338-3.3262-9.3966-6.4332-13.8559-9.8092c-2.1496-1.6274-3.8682-1.7545-6.3924-0.6543
	c-16.3047,7.1062-33.2141,12.2468-50.8566,14.7792c-5.4734,0.7856-10.9764,1.3659-17.3093,2.1438
	c6.2938,4.4448,11.8096,8.4917,17.4984,12.2789c2.1086,1.4037,2.3234,2.65,1.3675,4.878c-2.7258,6.3531-5.2073,12.811-7.8405,19.366
	c0.6175,0,0.9002,0.0871,1.0797-0.0123c20.8238-11.5287,43.1169-18.8581,66.4111-23.3838c1.0296-0.2,2.3318-1.1385,2.7357-2.0682
	C477.838,492.9438,480.0922,487.1467,482.5237,481.1262z M406.4123,503.9973c-6.8667-4.8193-13.3525-9.447-19.954-13.9033
	c-0.7797-0.5263-2.3846-0.5071-3.2842-0.0726c-7.9157,3.8229-12.3678,14.4471-9.8988,23.276
	c2.5984,9.2918,11.5316,15.9747,20.5924,15.1736c1.2184-0.1077,2.9542-1.0862,3.4012-2.1167
	C400.4307,519.0665,403.3185,511.6599,406.4123,503.9973z M481.8054,499.1786c4.5898-0.4453,8.534-0.7707,12.4576-1.2606
	c0.7167-0.0895,1.7068-0.7004,1.9668-1.3228c3.0644-7.3362,6.0138-14.7203,9.0536-22.2409
	c-6.6885-4.6869-13.0917-9.2332-19.5876-13.6429c-0.7295-0.4952-2.1777-0.6139-2.961-0.2301
	c-3.5244,1.7269-6.9292,3.6981-10.7432,5.7812c4.849,3.4141,9.1369,6.8897,13.8585,9.6136
	c3.7966,2.1902,3.9871,4.4039,2.2422,8.0248C485.7853,488.6879,484.0141,493.7333,481.8054,499.1786z M497.9996,497.1425
	c11.8179-4.0584,17.504-15.6947,13.4305-26.2975c-3.7667-9.804-15.3514-15.4529-24.5447-11.5836
	c6.0826,4.2654,11.8952,8.5081,17.8965,12.4644c2.2619,1.4911,2.493,2.8251,1.4688,5.1927
	C503.4466,483.4001,500.8953,489.9912,497.9996,497.1425z M399.1527,526.7458c0.3159,0.292,0.6318,0.584,0.9477,0.876
	c0.9856-1.0546,2.3586-1.9437,2.892-3.1917c2.7947-6.5383,5.4619-13.1358,7.9377-19.8004c0.3582-0.9644-0.1543-2.9428-0.9479-3.5344
	c-5.8062-4.3278-11.7406-8.4907-17.7563-12.524c-1.0621-0.7121-2.6937-0.5748-4.0623-0.8298
	c-0.0947,0.3504-0.1895,0.7008-0.2842,1.0513c6.0164,4.2314,11.9755,8.5484,18.0816,12.6464
	c2.0405,1.3695,2.5063,2.5479,1.4981,4.8811C404.5442,513.0656,401.902,519.9288,399.1527,526.7458z M468.264,467.5784
	c-0.1133,0.3489-0.2266,0.6978-0.34,1.0468c5.5482,3.9342,11.0963,7.8685,16.7407,11.8709
	c-2.5939,6.5126-5.0856,12.7688-7.5774,19.025c0.3347,0.2236,0.6694,0.4472,1.0041,0.6708c0.8122-0.861,1.9457-1.5844,2.3828-2.6059
	c2.2504-5.2592,4.4124-10.562,6.3676-15.936c0.3273-0.8997-0.1398-2.7191-0.8736-3.2715
	c-4.674-3.5187-9.4869-6.8594-14.3542-10.1088C470.7353,467.683,469.3926,467.7911,468.264,467.5784z"/>
<path d="M546.1323,420.2924c6.7565,0,12.96,0,20.4247,0c-1.0085,2.9646-1.9196,5.1679-2.4803,7.457
	c-0.3776,1.5413-0.2946,3.2025-0.358,4.8125c-0.1849,4.6941-1.7337,6.2783-6.4127,6.2927
	c-10.243,0.0314-20.4863,0.0329-30.7294-0.0027c-4.4833-0.0157-6.0637-1.5907-6.0775-6.106
	c-0.0363-11.8682,0.0769-23.7376-0.0734-35.6039c-0.0328-2.5912-1.4236-5.1962-1.2997-7.7518
	c0.2494-5.1467,2.879-9.5591,5.4722-13.8883c0.147-0.2454,0.661-0.2787,1.0098-0.3941c1.9572-0.6473,3.9124-1.3008,5.8775-1.923
	c0.3487-0.1104,0.763-0.1823,1.1094-0.1046c2.9628,0.6643,6.302,0.7354,8.7653,2.2365c2.4594,1.4987,4.4766,4.2075,3.9842,7.7531
	c-0.0685,0.4931,0.2532,1.3331,0.649,1.5521c3.4227,1.8939,1.8861,4.4636,1.0283,6.9357c-0.2277,0.6563-0.8464,1.2645-0.8506,1.8976
	C546.1136,402.1735,546.1323,410.8924,546.1323,420.2924z M544.2888,419.9711c-0.0128-0.3998-0.0256-0.7997-0.0385-1.1995
	c-7.2064,0-14.4128,0-21.9626,0c0,5.1512-0.2092,10.1375,0.1532,15.0818c0.0861,1.1752,2.0159,3.0607,3.217,3.1589
	c4.5778,0.3741,9.2044,0.151,13.8259,0.151c-0.139-1.805-0.2302-3.3699-0.3867-4.9282c-0.2075-2.0664,0.3949-3.9824-1.7413-5.9649
	c-2.3775-2.2063-0.0112-6.0287,3.3971-6.1192C541.9323,420.1197,543.1102,420.0327,544.2888,419.9711z M525.4332,393.0805
	c-0.108-0.0292-0.2162-0.0584-0.3242-0.0877c0,1.6199,0.0621,3.2429-0.0188,4.8587c-0.0705,1.4068-0.3024,2.8055-0.4629,4.2077
	c-0.4329-0.0286-0.8657-0.0573-1.2986-0.0859c0-3.1976,0-6.3952,0-9.5928c-0.2739,0.0167-0.5479,0.0333-0.8218,0.05
	c0,4.3802,0,8.7603,0,13.336c7.3727,0,14.5078,0,21.685,0c0-4.6174,0-8.9141,0-13.2107c-0.1033,0.0001-0.2067,0.0001-0.31,0.0002
	c-0.2335,2.0984-0.4669,4.1967-0.7003,6.295c-0.3495-0.0062-0.699-0.0124-1.0486-0.0186c-0.2199-2.2611-0.4398-4.5223-0.6787-6.9789
	c-4.6732,0-9.2281,0-13.8992,0c-0.2229,1.7403-0.4269,3.334-0.6311,4.9277c-0.347-0.0046-0.6941-0.0091-1.0411-0.0137
	C525.733,395.5385,525.5831,394.3095,525.4332,393.0805z M540.8223,427.2573c0,2.3203-0.4468,4.4571,0.1418,6.2548
	c0.4684,1.4306,2.1206,3.3714,3.3878,3.4825c4.7097,0.4127,9.4908,0.3555,14.2133,0.023c1.1392-0.0801,2.7935-1.7386,3.0883-2.9455
	c0.5097-2.0876,0.1414-4.3897,0.1414-6.8148C554.7186,427.2573,548.0282,427.2573,540.8223,427.2573z M544.2406,408.1193
	c-7.4073,0-14.4617,0-21.9625,0c0,2.2832-0.1813,4.389,0.0955,6.4328c0.1008,0.7442,1.2801,1.9011,1.9888,1.9171
	c6.5616,0.1479,13.1279,0.0873,19.8782,0.0873C544.2406,413.5546,544.2406,410.9958,544.2406,408.1193z M523.6389,384.5077
	c6.5154,0,13.0641,0,19.5865,0c0.6894-5.0096,0.2861-5.525-4.2516-5.5452c-3.7375-0.0166-7.4753-0.0198-11.2128-0.0031
	C523.2061,378.9799,522.7518,379.5784,523.6389,384.5077z M545.6934,389.758c0.2389-0.3267,0.4778-0.6535,0.7167-0.9802
	c-0.8953-0.7434-1.7742-2.1073-2.6884-2.1314c-6.8423-0.1804-13.6938-0.1779-20.5361,0.0023
	c-0.9212,0.0243-1.8079,1.3607-2.7105,2.0894c0.2391,0.34,0.4782,0.6799,0.7173,1.0199
	C529.3593,389.758,537.5264,389.758,545.6934,389.758z M563.3912,425.2676c0.3046-0.4066,0.6092-0.8132,0.9138-1.2198
	c-0.8589-0.6512-1.7058-1.8475-2.5789-1.8671c-6.8662-0.154-13.7383-0.1333-20.606-0.0145
	c-0.8167,0.0141-1.6177,0.9422-2.4259,1.4466c0.7494,0.5516,1.4913,1.5703,2.2493,1.5824
	C548.4246,425.3149,555.9083,425.2676,563.3912,425.2676z"/>
<path d="M485.9039,561.6553c-0.7863-0.2147-1.7066-0.4659-2.5218-0.6884c-1.5994,0.9623-1.347,1.2703,6.0934,7.6793
	c-2.1446,3.6444-4.775,4.7183-8.2972,2.7756c-12.9034-7.1171-25.7449-14.3478-38.5425-21.6537
	c-2.9859-1.7046-4.3958-4.6888-3.5139-8.0018c0.9145-3.4352,2.2686-6.8288,3.9396-9.9698
	c2.5449-4.7839,5.6592-5.6802,10.9525-4.5876c5.0994,1.0525,10.2845,1.8416,15.4712,2.2662
	c3.4507,0.2824,6.1556-1.4471,7.8446-4.7281c2.1658-4.2072,4.5765-8.2883,6.9522-12.5504c3.1687,0.6033,4.8008,2.1968,4.9595,5.5234
	c0.0554,1.1613,1.0116,2.6887,2.0151,3.3231c3.7878,2.3947,7.7644,4.4911,12.1275,6.9576
	c-1.5796,2.8381-3.3375,5.4038-4.4913,8.2173c-1.495,3.6456-2.3568,7.5475-3.786,11.2245
	c-0.8583,2.2084-2.1626,4.2746-3.4745,6.2677C489.9407,556.2802,488.041,558.7131,485.9039,561.6553z M452.7609,540.4992
	c5.7966,4.882,12.7536,6.5285,20.3259,6.7061c2.0444,0.048,3.3955-0.0305,4.8462-1.6084c3.8665-4.2054,8.5951-6.2407,14.4472-5.0126
	c0.8087,0.1697,2.2534-0.0205,2.556-0.5389c2.1683-3.7148,4.1173-7.5578,6.2255-11.5288c-3.677-2.0594-7.0108-3.9266-10.349-5.7963
	c-2.3466,3.5291-4.4041,6.9236-6.7592,10.0974c-3.8626,5.2053-9.2466,7.444-15.6384,7.1113
	c-5.2616-0.2739-7.8086-2.8067-8.851-7.8096c-0.212-1.0175-1.6819-1.7728-2.4849-2.5634
	C455.4623,533.6534,454.1551,536.9661,452.7609,540.4992z M479.0036,557.8752c-2.488,3.8895-5.256,3.5288-8.4588,1.4481
	c-2.9202-1.897-6.0267-3.5158-9.1004-5.1655c-2.4996-1.3415-3.8332-3.0397-2.7829-6.0536c0.2302-0.6608-0.3849-1.6162-0.6107-2.436
	c-0.7687,0.3289-1.5321,0.6709-2.3073,0.9838c-1.4527,0.5864-3.0594,1.8453-4.3349,1.573c-1.98-0.4228-4.0012-1.6141-5.4878-3.0247
	c-0.8865-0.8411-1.444-2.9982-0.9924-4.0814c0.9856-2.3642,0.3508-3.2059-1.8751-3.5341c-3.6488,4.8171-3.5154,8.621,0.8166,11.1132
	c12.5279,7.2073,25.1296,14.2903,37.8265,21.194c1.4348,0.7802,3.6605,0.1056,5.5194,0.1056c0.0181-0.36,0.0362-0.72,0.0543-1.0799
	c-0.488-0.3555-0.9445-0.7683-1.4692-1.0571c-2.9926-1.6469-6.2606-3.0427-4.609-7.616
	C481.3473,559.8143,479.888,558.8009,479.0036,557.8752z M477.7897,548.5297c2.3067,1.3047,4.3589,2.4708,6.4172,3.6255
	c0.4337,0.2433,0.876,0.4832,1.3387,0.6608c3.4022,1.3058,7.0464-0.5168,7.8867-4.0262c0.2875-1.2009,0.1239-2.5129,0.4337-3.7045
	c0.507-1.9493-0.2771-2.644-2.0996-3.0633C486.801,540.8798,481.6352,543.1189,477.7897,548.5297z M477.7349,549.4467
	c-5.1894-0.6028-9.6699-1.2156-14.1705-1.5797c-1.0955-0.0886-2.2572,0.6404-3.3884,0.9935
	c0.5176,1.2147,0.6941,2.9574,1.613,3.5511c3.6401,2.3517,7.447,4.4786,11.3447,6.3749c0.98,0.4767,2.5274-0.2128,3.8141-0.3665
	c0.0701-0.4251,0.1401-0.8503,0.2102-1.2754c-0.8628-0.4849-1.7256-0.9698-2.4903-1.3995
	C475.6635,553.7,476.4138,552.1595,477.7349,549.4467z M463.9753,530.7476c-0.0301,0.5084-0.0601,1.0167-0.0902,1.525
	c1.1762,0.8472,2.2539,2.2018,3.546,2.4526c5.1922,1.0079,9.79-0.492,12.9612-4.7779c2.5134-3.3969,4.5894-7.1382,6.6429-10.8466
	c1.1847-2.1394,0.8228-4.0198-2.1129-4.8079c-0.9058,1.6298-1.844,3.0996-2.5732,4.6667
	C478.7998,526.5876,474.7407,533.4356,463.9753,530.7476z M451.2704,539.8195c1.1967-3.072,2.3252-5.6353,3.1457-8.2935
	c0.2251-0.7292-0.1957-2.094-0.7941-2.5656c-2.5893-2.0407-6.6014-0.3649-9.1325,3.2928c-2.4693,3.5684,0.6351,4.1567,2.6035,5.38
	C448.1339,538.28,449.2662,538.7795,451.2704,539.8195z M462.0089,531.1135c-0.9102,3.6874,0.1863,5.4356,3.7934,6.6956
	c9.0633,3.1661,21.9807-6.2043,22.2054-16.488c-1.798,2.4371-3.3419,5.0423-4.9281,7.6215
	c-3.1305,5.0903-7.668,7.7841-13.6752,7.6578C465.8306,536.5253,462.5783,535.7255,462.0089,531.1135z M487.9947,555.5875
	c-3.1782-1.5128-6.0572-2.8832-9.1333-4.3475c-0.6909,1.2775-1.3121,2.4261-2.0796,3.8452c3.0176,1.674,5.7716,3.2018,8.6728,4.8113
	C486.4323,558.2379,487.1784,556.9723,487.9947,555.5875z M447.1286,539.6051c-0.3464,1.485-1.1974,3.4028-0.7978,3.7137
	c1.8995,1.4784,4.0619,2.7281,6.3144,3.5649c0.5436,0.2019,1.7863-1.4781,2.9951-2.5469c-2.0671-1.191-3.5434-2.0587-5.0368-2.8959
	C449.6522,540.9077,448.6755,540.4196,447.1286,539.6051z"/>
<path d="M319.1652,290.6696c-0.2718,1.1277-0.5437,2.2555-0.8155,3.3833c-0.3223,0.1104-0.6445,0.2208-0.9668,0.3312
	c0.1635-4.73-0.5867-8.9098-5.3925-10.7729c-2.071,4.7162,0.6368,7.9435,3.7211,11.0652c-0.2894,0.1741-0.5788,0.3481-0.8683,0.5222
	c-0.9678-0.5511-1.9355-1.1023-2.9033-1.6535c-0.1864,0.1267-0.3727,0.2534-0.5591,0.3802
	c1.3344,1.7849,2.6688,3.5698,4.0033,5.3546c-0.1676,0.2173-0.3352,0.4346-0.5028,0.6518
	c-0.9429-0.5507-1.8858-1.1014-3.1234-1.8242c-0.2351,1.6028-0.4552,3.1037-0.6753,4.6046
	c-0.2864,0.0363-0.5727,0.0726-0.8591,0.1089c-0.256-1.5261-0.5121-3.0523-0.8104-4.8304
	c-1.1362,0.6776-2.2155,1.3213-3.2948,1.9649c-0.222-0.2014-0.444-0.4029-0.666-0.6043c1.5368-1.8721,3.0737-3.7443,4.6105-5.6165
	c-0.2278-0.1907-0.4556-0.3813-0.6834-0.572c-1.0603,0.7229-2.1206,1.4459-3.181,2.1689c-0.3024-0.1618-0.6048-0.3236-0.9073-0.4854
	c2.805-3.2314,6.2173-6.2865,3.9163-10.9377c-3.7092,1.8448-3.9431,2.2465-6.3114,10.0863
	c-0.3458-1.1209-0.6917-2.2418-1.0375-3.3626c-0.2063-0.0278-0.4126-0.0555-0.6189-0.0833c-0.249,2.1969-0.498,4.3939-0.747,6.5908
	c-0.2681,0.0614-0.5361,0.1229-0.8042,0.1843c-0.3226-1.0941-0.6451-2.1882-1.0219-3.4662
	c-1.2676,0.982-2.4802,1.9214-3.6928,2.8608c-0.2582-0.2148-0.5164-0.4296-0.7746-0.6444c0.9344-1.2348,1.8688-2.4697,2.9615-3.9137
	c-1.3127-0.306-2.5252-0.5886-3.7378-0.8712c-0.0192-0.2865-0.0384-0.573-0.0576-0.8595c2.2968-0.2477,4.5935-0.4954,6.8903-0.7432
	c-0.0092-0.2283-0.0184-0.4565-0.0276-0.6848c-1.184-0.4204-2.3679-0.8409-3.5518-1.2613c-0.0688-0.308-0.1377-0.6161-0.2065-0.9242
	c4.3406-0.0138,8.7236,0.0551,10.6555-4.95c-4.552-2.084-8.0254-0.0287-11.1069,3.6564c-0.1985-0.2919-0.3971-0.5837-0.5956-0.8756
	c0.5598-1.0452,1.1195-2.0904,1.6793-3.1356c-0.1443-0.1754-0.2886-0.3507-0.4329-0.5261
	c-1.7368,1.3618-3.4737,2.7235-5.2105,4.0853c-0.2236-0.1297-0.4471-0.2594-0.6707-0.3891
	c0.5169-1.0583,1.0338-2.1167,1.5571-3.1879c-1.4616-0.2443-2.9182-0.4877-4.3748-0.7311c0.022-0.3145,0.0439-0.6289,0.0659-0.9434
	c1.3929-0.2086,2.7858-0.4172,4.51-0.6754c-0.6267-1.1904-1.206-2.2906-1.7852-3.3907c0.1845-0.2073,0.369-0.4145,0.5536-0.6218
	c1.7878,1.4816,3.5756,2.9631,5.3633,4.4447c0.192-0.2047,0.384-0.4095,0.576-0.6142c-0.6308-1.0765-1.2616-2.153-1.8924-3.2296
	c3.6807,1.9176,6.6837,5.6047,11.5491,3.0527c-1.7501-4.6086-5.69-5.4171-10.0103-6.1122c1.0234-0.3495,2.0468-0.699,3.0702-1.0484
	c0.0237-0.2311,0.0474-0.4623,0.0711-0.6934c-2.1824-0.2955-4.3649-0.5911-6.5473-0.8866
	c-0.0446-0.2379-0.0892-0.4757-0.1338-0.7136c1.0916-0.3958,2.1832-0.7917,3.3684-1.2214
	c-0.9357-1.2023-1.8207-2.3394-2.7057-3.4765c0.1892-0.2455,0.3785-0.491,0.5677-0.7365c1.2787,0.8824,2.5575,1.7647,4.0902,2.8224
	c0.3329-1.2296,0.6518-2.4074,0.9707-3.5852c0.295-0.0075,0.5901-0.015,0.8851-0.0225c0.1721,2.267,0.3441,4.534,0.5162,6.801
	c0.2692,0.0142,0.5383,0.0284,0.8075,0.0427c0.37-1.2312,0.74-2.4624,1.11-3.6936c0.3237-0.0765,0.6474-0.1529,0.9711-0.2294
	c-0.1693,4.5632,0.0409,8.9138,5.2313,10.6422c1.8019-4.5898-0.554-7.8883-3.8368-10.9287
	c0.2862-0.1884,0.5723-0.3768,0.8585-0.5652c1.0607,0.6159,2.1214,1.2319,3.182,1.8479c0.1713-0.1214,0.3427-0.2429,0.514-0.3643
	c-1.3956-1.8388-2.7913-3.6776-4.1869-5.5163c0.1478-0.1975,0.2956-0.395,0.4435-0.5926c1.0451,0.5383,2.0901,1.0765,3.2582,1.6781
	c0.186-1.6156,0.3501-3.0406,0.5142-4.4655c0.3087-0.0357,0.6173-0.0714,0.926-0.107c0.2299,1.5172,0.4599,3.0344,0.7328,4.8344
	c1.164-0.7039,2.2943-1.3875,3.4245-2.071c0.209,0.2106,0.418,0.4212,0.6271,0.6318c-1.5714,1.8902-3.1429,3.7804-4.7143,5.6706
	c0.2156,0.1626,0.4312,0.3252,0.6467,0.4878c1.1729-0.6872,2.3457-1.3745,3.5186-2.0617c0.2886,0.212,0.5771,0.424,0.8656,0.6359
	c-3.452,2.8967-6.1387,6.0474-4.1187,10.9913c4.483-2.0506,6.0954-5.6194,5.3443-10.6004c0.3388,0.0328,0.6777,0.0656,1.0165,0.0984
	c0.3716,1.1062,0.7432,2.2124,1.1148,3.3186c0.1922,0.0346,0.3843,0.0693,0.5764,0.1039c0.2996-2.1753,0.5991-4.3506,0.8987-6.5258
	c0.2554-0.0471,0.5107-0.0942,0.7661-0.1412c0.3966,0.9946,0.7932,1.9893,1.2479,3.1299c1.2412-0.8391,2.4472-1.6542,3.6532-2.4695
	c0.2105,0.2443,0.421,0.4886,0.6315,0.733c-0.9273,1.1896-1.8546,2.3792-2.8958,3.7149c1.3333,0.3792,2.5187,0.7164,3.704,1.0536
	c-0.011,0.286-0.0221,0.5721-0.0331,0.8581c-2.2788,0.1966-4.5575,0.3932-6.8363,0.5898c-0.0148,0.2794-0.0296,0.5589-0.0445,0.8384
	c1.1788,0.3463,2.3577,0.6926,3.5365,1.0388c0.1111,0.2943,0.2222,0.5887,0.3333,0.8831
	c-4.3098,0.2994-8.9394,0.0056-10.6374,5.2601c4.2873,1.7548,7.668-0.1418,10.5873-3.8108
	c0.2146,0.2774,0.4291,0.5548,0.6436,0.8323c-0.5099,1.0317-1.0199,2.0634-1.5298,3.0951c0.1297,0.1723,0.2594,0.3446,0.3892,0.5169
	c1.7363-1.3445,3.4726-2.689,5.2089-4.0334c0.1912,0.1259,0.3823,0.2518,0.5735,0.3777c-0.4582,1.002-0.9164,2.004-1.463,3.1993
	c1.5016,0.2726,2.9496,0.5355,4.3975,0.7983c-0.0056,0.3086-0.0112,0.6172-0.0167,0.9258c-1.4987,0.2675-2.9974,0.535-4.6839,0.8359
	c0.6527,1.1235,1.243,2.1394,1.8332,3.1552c-0.179,0.2115-0.3579,0.4231-0.5368,0.6346c-1.82-1.4245-3.6401-2.849-5.4601-4.2734
	c-0.1615,0.1888-0.323,0.3776-0.4845,0.5663c0.6165,1.0546,1.2331,2.1093,1.8497,3.1639c-0.1594,0.2748-0.3189,0.5496-0.4783,0.8244
	c-3.1533-2.8137-6.1299-6.2169-11.0317-3.8271c2.2107,4.2665,5.7669,6.0161,10.9518,5.0211
	c-0.1335,0.404-0.2669,0.808-0.4003,1.2119c-1.0605,0.4208-2.1211,0.8417-4.3018,1.7071c3.1699,0.3973,5.2998,0.6642,7.4298,0.9312
	c0.0292,0.2815,0.0585,0.563,0.0877,0.8445c-1.0614,0.2377-2.1228,0.4753-3.4511,0.7728c0.9485,1.2939,1.8518,2.5262,2.7551,3.7585
	c-0.1801,0.2362-0.3601,0.4724-0.5402,0.7086c-1.1786-0.8338-2.3571-1.6677-3.8014-2.6895
	c-0.3928,1.2051-0.7732,2.372-1.1536,3.5389c-0.2598,0.0285-0.5195,0.057-0.7793,0.0855c-0.2725-2.3075-0.545-4.615-0.8175-6.9225
	C319.7092,290.6316,319.4373,290.6506,319.1652,290.6696z"/>
<path d="M421.5831,555.3487c0.9795,0.5338,1.959,1.0676,3.1791,1.7325c0.2101-1.6028,0.4003-3.0535,0.5905-4.5042
	c0.3621-0.0066,0.7242-0.0132,1.0863-0.0198c0.1596,1.4796,0.3193,2.9591,0.5152,4.7754c1.1677-0.7377,2.2156-1.3998,3.2634-2.0619
	c0.2377,0.2068,0.4753,0.4136,0.713,0.6204c-1.5027,1.8685-3.0055,3.7371-4.5082,5.6057c0.2134,0.1735,0.4268,0.3471,0.6402,0.5206
	c1.0689-0.6696,2.1378-1.3391,3.2068-2.0086c0.2832,0.1578,0.5664,0.3157,0.8496,0.4734
	c-2.7769,3.1458-6.2582,6.0752-3.7299,10.9208c4.3327-1.8613,6.0352-5.3542,5.047-10.4877
	c0.3748,0.0754,0.7496,0.1509,1.1244,0.2263c0.4011,1.0986,0.8022,2.1971,1.2033,3.2956c0.2084,0.0174,0.4168,0.0348,0.6252,0.0522
	c0.2441-2.1679,0.4883-4.3358,0.7325-6.5037c0.2653-0.0135,0.5306-0.027,0.7959-0.0405c0.3496,1.0354,0.6992,2.0708,1.1073,3.2794
	c1.3094-0.9671,2.5016-1.8476,3.6938-2.7281c0.2388,0.2302,0.4776,0.4603,0.7165,0.6906c-0.8851,1.1865-1.7703,2.373-2.7758,3.7211
	c1.2638,0.4279,2.4354,0.8246,3.607,1.2214c-0.006,0.2659-0.0119,0.5319-0.0179,0.7979c-2.3198,0.224-4.6395,0.4481-6.9593,0.6721
	c0.0194,0.2921,0.0389,0.5841,0.0583,0.8762c1.1872,0.3049,2.3744,0.6097,3.5616,0.9146c0.0928,0.3236,0.1856,0.6473,0.2784,0.9709
	c-4.6328-0.265-8.7339,0.4529-10.7773,4.9737c2.8311,0.9357,2.8311,0.9357,11.807-3.2821c-0.9054,1.5555-1.4558,2.501-2.0061,3.4464
	c0.1273,0.1968,0.2546,0.3936,0.3819,0.5904c1.7829-1.3118,3.5659-2.6237,5.3488-3.9355c0.1929,0.166,0.3858,0.3319,0.5786,0.4979
	c-0.5366,0.9521-1.0733,1.9042-1.7461,3.098c1.5672,0.2432,3.0441,0.4724,4.521,0.7016c0.0305,0.3066,0.0611,0.6132,0.0917,0.9198
	c-1.5211,0.2958-3.0421,0.5916-4.7216,0.9182c0.6513,1.0755,1.2615,2.0832,1.8718,3.0909c-0.1776,0.2135-0.3552,0.427-0.5328,0.6405
	c-1.8319-1.4301-3.6638-2.8602-5.4957-4.2903c-0.1572,0.1838-0.3143,0.3675-0.4715,0.5513
	c0.5994,1.0618,1.1988,2.1235,1.7983,3.1853c-0.1621,0.2855-0.3243,0.571-0.4864,0.8565c-3.1092-2.996-6.1753-6.1365-11.0553-3.8307
	c2.317,3.9736,5.5041,6.2883,10.8478,5.0252c-0.1252,0.4404-0.2503,0.8809-0.3754,1.3214
	c-1.0354,0.3245-2.0708,0.6489-3.1063,0.9734c-0.0449,0.2125-0.0898,0.425-0.1346,0.6376c2.1982,0.3027,4.3965,0.6055,6.5947,0.9083
	c0.0155,0.2632,0.031,0.5263,0.0466,0.7895c-1.0621,0.2534-2.1243,0.5068-3.5094,0.8372c1.0124,1.296,1.9539,2.5011,2.8954,3.7063
	c-0.1919,0.2478-0.3839,0.4957-0.5759,0.7436c-1.2596-0.8417-2.5192-1.6834-4.051-2.707c-0.3086,1.232-0.6093,2.4326-0.91,3.6332
	c-0.3065,0.0132-0.613,0.0266-0.9196,0.0399c-0.2215-2.3393-0.443-4.6785-0.6645-7.0178c-0.2519,0.0012-0.5038,0.0024-0.7557,0.0037
	c-0.3155,1.1785-0.631,2.357-0.9465,3.5355c-0.3179,0.1084-0.6357,0.2168-0.9536,0.3252c0.2202-4.7623-0.6745-8.8698-5.4969-10.8257
	c-1.7645,4.608,0.406,7.9871,3.8532,11.0076c-0.3051,0.2398-0.6102,0.4795-0.9153,0.7193c-1.02-0.6451-2.04-1.2902-3.06-1.9354
	c-0.1868,0.1246-0.3736,0.2491-0.5604,0.3737c1.39,1.8812,2.7799,3.7626,4.1699,5.6438c-0.1948,0.1757-0.3896,0.3514-0.5844,0.527
	c-0.9843-0.5707-1.9686-1.1416-3.1564-1.8304c-0.1723,1.6356-0.3298,3.1302-0.4872,4.6248
	c-0.3127,0.0297-0.6254,0.0594-0.9381,0.0891c-0.2429-1.5364-0.4858-3.0729-0.7586-4.7988
	c-1.1797,0.6844-2.2795,1.3224-3.3794,1.9604c-0.2198-0.1979-0.4395-0.3958-0.6593-0.5937c1.552-1.8749,3.104-3.7499,4.6559-5.6248
	c-0.2173-0.1893-0.4346-0.3787-0.6519-0.5679c-1.1229,0.71-2.2458,1.42-3.3687,2.1299c-0.3214-0.1964-0.6427-0.3928-0.9641-0.5892
	c3.2477-3.0833,6.4332-6.1851,4.0583-11.092c-4.1621,2.1923-5.9459,5.6014-5.14,10.4916c-0.3721-0.0421-0.7443-0.0841-1.1165-0.1262
	c-0.3226-1.1275-0.6451-2.2549-0.9677-3.3824c-0.1845-0.0314-0.369-0.0629-0.5536-0.0943
	c-0.3327,2.2735-0.6655,4.5469-0.9982,6.8204c-0.2348,0.0048-0.4695,0.0096-0.7043,0.0144
	c-0.3537-1.0644-0.7073-2.1288-1.1085-3.336c-1.3193,0.9862-2.5029,1.871-3.6864,2.7557c-0.2644-0.2783-0.5289-0.5565-0.7933-0.8347
	c1.0219-1.1998,2.0439-2.3995,3.262-3.8296c-1.5332-0.3327-2.7387-0.5943-3.9441-0.8559c0.0003-0.3146,0.0007-0.6293,0.001-0.9439
	c2.2704-0.1544,4.5407-0.3089,6.811-0.4634c0.0177-0.2661,0.0355-0.5322,0.0533-0.7983c-1.2356-0.4326-2.4712-0.8653-3.7068-1.2979
	c4.2173-0.9537,8.8062-0.6969,10.4084-6.0131c-4.5588-2.0087-7.8951,0.3261-10.9574,3.6839
	c-0.1885-0.2888-0.377-0.5774-0.5655-0.8661c0.5762-1.0253,1.1525-2.0506,1.7287-3.0759c-0.1454-0.1745-0.2907-0.349-0.4361-0.5235
	c-1.8069,1.3776-3.6138,2.7552-5.4208,4.1328c-0.1791-0.1758-0.3582-0.3517-0.5372-0.5275
	c0.5063-0.9847,1.0126-1.9695,1.5935-3.0993c-1.5571-0.2187-2.9284-0.4112-4.2997-0.6038
	c-0.0264-0.3405-0.0528-0.6809-0.0793-1.0214c1.4336-0.1889,2.8672-0.3778,4.6079-0.6072c-0.643-1.1946-1.2677-2.3551-1.8923-3.5156
	c0.1947-0.1899,0.3893-0.3799,0.584-0.5699c1.7991,1.5078,3.5981,3.0156,5.3972,4.5234c0.179-0.189,0.3579-0.378,0.5369-0.567
	c-0.6123-1.157-1.2246-2.3141-1.8369-3.4711c0.2181-0.2849,0.4363-0.5698,0.6544-0.8547c2.8905,3.4186,5.9758,6.24,10.9095,4.1068
	c-1.9334-4.5086-5.5281-5.8282-10.3089-5.1326c0.0364-0.3479,0.0728-0.6957,0.1093-1.0436c1.1167-0.3657,2.2334-0.7313,3.3501-1.097
	c0.0332-0.1998,0.0663-0.3996,0.0995-0.5994c-2.2551-0.3137-4.5101-0.6276-6.7651-0.9413c-0.0086-0.2533-0.0172-0.5067-0.0259-0.76
	c1.0691-0.38,2.1382-0.76,3.3008-1.1732c-0.9143-1.2328-1.8016-2.4293-2.689-3.6257c0.2312-0.2301,0.4625-0.4602,0.6937-0.6902
	c1.2033,0.9005,2.4067,1.8011,3.8423,2.8755c0.3998-1.2565,0.7721-2.4266,1.1444-3.5968c0.2434-0.0054,0.4868-0.0107,0.7301-0.0161
	c0.285,2.3547,0.57,4.7095,0.855,7.0642c0.2299-0.0273,0.4597-0.0546,0.6896-0.0819c0.2986-1.233,0.5973-2.4659,0.8959-3.6989
	c0.3211-0.0933,0.6422-0.1865,0.9633-0.2798c-0.2085,4.5781,0.3746,8.7103,5.118,10.6956
	c2.2752-4.7369-0.3828-7.9421-3.6156-10.9902c0.2639-0.1913,0.5278-0.3828,0.7917-0.5741c1.0412,0.556,2.0823,1.1119,3.1235,1.6679
	c0.1875-0.1637,0.375-0.3275,0.5624-0.4912c-1.4065-1.7593-2.813-3.5186-4.2195-5.2779
	C421.1819,555.7493,421.3825,555.549,421.5831,555.3487z"/>
<path d="M312.065,328.925c9.7235,7.2451,11.5131,12.6643,8.0644,24.0443c-0.5791,1.9108-1.1754,3.8163-1.7628,5.7246
	c-0.5654,1.8371-0.0879,3.2864,0.4816,5.1908c0.8616,2.8813-0.4922,6.6468-1.6497,9.7594
	c-0.3025,0.8134-3.5407,1.2239-5.1236,0.7635c-13.1785-3.8328-26.2877-7.9041-39.4118-11.9231
	c-4.3929-1.3453-4.8109-1.9893-3.2977-6.4598c0.9566-2.826,0.6433-6.8813,5.4802-6.7585c0.3856,0.0098,0.935-1.3326,1.1888-2.1175
	c1.0743-3.3229,2.0203-6.6872,3.0964-10.0095c2.3907-7.3807,8.3996-11.8732,16.1876-12.3718
	c1.1283-0.0722,2.7149-0.5825,3.2265-1.4182c2.6913-4.3964,5.5828-5.9314,9.3907-4.5459
	C311.7549,320.1932,313.1944,323.6042,312.065,328.925z M313.313,372.8455c0.4249,0.3276,0.8499,0.6552,1.2748,0.9828
	c0.8004-1.1358,1.9107-2.1642,2.3478-3.4259c1.963-5.6656,1.8911-5.6804-3.7313-7.3907
	c-10.0299-3.051-20.0543-6.1203-30.0863-9.1646c-1.2546-0.3807-2.5411-0.6565-3.8296-0.9852
	c-1.001,2.7323-1.8568,5.0682-2.7125,7.4041c-0.3565-0.097-0.713-0.194-1.0696-0.291c0.6585-2.5368,1.317-5.0737,1.9755-7.6105
	c-0.3428-0.0944-0.6856-0.1888-1.0284-0.2831c-0.906,2.4016-1.812,4.8031-2.718,7.2047c-0.3197-0.0996-0.6394-0.1992-0.9591-0.2989
	c0.5709-2.5713,1.1419-5.1425,1.7128-7.7138c-0.5211-0.1696-1.0422-0.3393-1.5633-0.5089c-0.683,1.8114-1.2803,3.6611-2.0686,5.4255
	c-1.277,2.8582-0.4117,4.1487,2.6217,5.0104c9.3614,2.6592,18.6137,5.7016,27.9677,8.3884
	c1.6685,0.4792,3.6206-0.0294,5.4418-0.0819c0.101-0.3787,0.2019-0.7574,0.3029-1.1361c0.1279,0.9662,0.2557,1.9323,0.3836,2.8985
	c0.2863,0.0616,0.5725,0.1231,0.8588,0.1847c0.8931-2.4999,1.7861-4.9998,2.6792-7.4996c0.3206,0.1003,0.6411,0.2006,0.9616,0.3009
	c-0.5671,2.6164-1.1342,5.2328-1.7012,7.8492c0.3223,0.0944,0.6445,0.1888,0.9667,0.2831c0.9628-2.4342,1.9256-4.8685,2.8885-7.3027
	c0.3257,0.1182,0.6515,0.2364,0.9772,0.3546C314.5748,367.9081,313.9439,370.3767,313.313,372.8455z M282.0158,335.0713
	c12.6241,3.8546,25.1852,7.6899,37.7948,11.5401c0.998-6.1759-2.0192-12.5358-7.1591-15.1038
	c-0.8932-0.4463-2.3638-0.3444-3.3297,0.0653c-4.7008,1.9936-7.5448,1.0979-10.4624-3.2803
	c-0.5794-0.8696-1.7967-1.7274-2.7995-1.8328C290.586,325.8844,284.7543,329.4533,282.0158,335.0713z M319.8053,348.2676
	c-13.0346-3.9722-25.8077-7.8647-38.7843-11.8192c-0.7854,2.5457-1.3963,4.5259-2.116,6.859
	c13.0576,3.9862,25.842,7.8889,38.8859,11.8708C318.5293,352.6454,319.1103,350.6519,319.8053,348.2676z M276.7814,350.237
	c13.0919,3.997,25.7981,7.8763,38.7868,11.8418c0.632-1.9439,1.1486-3.5324,1.7512-5.3858
	c-13.107-3.9988-25.8184-7.877-38.7848-11.8329C277.9475,346.6607,277.4553,348.1704,276.7814,350.237z M311.0993,325.6316
	c0.108-2.9184-2.3571-5.51-5.3639-5.6391c-3.0859-0.1325-5.6109,2.117-5.7792,5.1486c-0.1803,3.2466,2.2033,5.7782,5.4771,5.8172
	C308.4732,330.9945,310.9883,328.63,311.0993,325.6316z"/>
<path d="M350.2589,519.3179c-3.2771,2.5251-7.0096,5.4012-10.6305,8.1912c-1.8614-1.0231-3.5667-1.8509-5.1429-2.877
	c-0.6968-0.4536-1.533-1.2601-1.6222-1.9899c-0.6837-5.5963-5.2148-8.7475-8.1197-12.8899
	c-3.5788-5.1033-7.7292-9.8049-11.3244-14.8976c-2.856-4.0459-6.3692-7.0011-11.0177-8.6381
	c-0.1141-0.0402-0.2208-0.1215-0.3116-0.2047c-4.5002-4.1206-8.9984-8.2435-13.9978-12.8253
	c7.6644-5.9115,14.7135-11.3484,22.6573-17.4754c1.4621,3.0845,2.6881,5.7094,3.9511,8.3163
	c0.4884,1.0082,1.1684,1.9334,1.5757,2.9693c1.6545,4.2073,3.2068,8.4549,4.8731,12.6574c0.3124,0.788,0.9476,1.4579,1.4787,2.1478
	c6.7755,8.8001,13.5274,17.6188,20.3818,26.3571c0.8353,1.065,2.3223,1.5928,3.3443,2.5446
	c1.0591,0.9864,2.1895,2.0578,2.7925,3.3276C349.7693,515.3427,349.7949,516.9377,350.2589,519.3179z M343.8738,512.0811
	c-0.8995-1.2323-1.468-2.0471-2.0729-2.834c-3.7301-4.8528-7.2566-9.8834-11.2646-14.4953
	c-3.8843-4.4697-8.2639-8.5092-12.4391-12.7247c-0.1449-0.1463-0.4296-0.1541-0.847-0.2916
	c-1.7511,1.3877-3.5834,2.8397-5.5926,4.4319c1.3085,1.7345,2.4562,3.1893,3.5314,4.6958c1.9432,2.7226,4.7578,5.2267,5.5858,8.2645
	c2.2866,8.3893,9.2155,13.2349,13.4658,20.3766C337.6956,516.842,340.6383,514.5743,343.8738,512.0811z M313.0238,464.622
	c-5.7874,4.4675-11.2603,8.6923-16.6404,12.8454c2.3648,2.4892,4.4706,4.7058,6.8112,7.1694
	c4.9167-3.8129,9.7967-7.5975,14.8329-11.5031C316.3166,470.2235,314.768,467.5891,313.0238,464.622z M297.4027,474.6917
	c4.2253-3.2859,8.2448-6.4117,12.392-9.6369c-0.9932-1.5775-1.8357-2.9157-2.8053-4.4558
	c-4.2343,3.2655-8.4507,6.5171-12.8525,9.9117C295.3675,472.0862,296.3347,473.3244,297.4027,474.6917z M318.7409,475.7824
	c-0.4514-0.0364-0.9029-0.0727-1.3543-0.1091c-3.3567,2.5926-6.6737,5.2389-10.0862,7.7558
	c-1.785,1.3165-1.9932,2.3916,0.3134,3.758c3.5672-2.7574,7.2687-5.4979,10.783-8.4605
	C318.9475,478.2624,318.6476,476.7891,318.7409,475.7824z M338.4396,525.2506c0.4161,0.0792,0.8323,0.1584,1.2484,0.2377
	c2.5425-1.9607,5.1395-3.8574,7.5832-5.9343c0.5082-0.4319,0.4488-1.5317,0.6509-2.3237c-0.7458,0.0535-1.6795-0.1611-2.2051,0.2069
	c-2.3256,1.6285-4.6122,3.3366-6.73,5.2214C338.4561,523.131,338.6038,524.366,338.4396,525.2506z M346.74,513.1423
	c-4.8732,1.8735-8.5508,5.4418-13.3689,9.1382C336.8809,522.4645,344.0954,517.4078,346.74,513.1423z"/>
<path d="M244.4882,342.7242c2.0151,0.7505,4.0453,1.4639,6.0357,2.2751c0.5589,0.2278,1.0005,0.7434,1.496,1.1269
	c-0.3977,0.2704-0.7954,0.5407-1.3767,0.9357c1.4172,0.2873,2.6953,0.5464,4.5903,0.9306c-1.8612,1.373-3.5572,2.5845,0.1934,4.4751
	c-0.5217,0.0811-1.0435,0.1622-1.5652,0.2433c-1.0106-0.4617-2.0211-0.9234-2.9767-1.36c-0.3599,0.6837-0.7161,1.3606-1.6165,3.0714
	c-0.2891-2.3636-0.4407-3.6031-0.6821-5.577c-0.5392,1.0671-0.8637,1.7094-1.2775,2.5285c-1.2447-3.1077-2.2958-5.732-3.347-8.3564
	c-0.6602,0.2492-1.3204,0.4983-1.9805,0.7475c0.9555,2.5674,1.911,5.1349,2.909,7.8166c-0.515-0.0761-1.2456-0.184-2.0326-0.3003
	c0.879,1.1624,1.7303,2.2882,3.2046,4.2377c-1.7397-0.4929-2.4746-0.7011-3.3183-0.9401c-0.2807,0.9488-0.5632,1.9038-0.8457,2.8589
	c-0.2162,0.0174-0.4325,0.0348-0.6487,0.0522c-0.2681-0.968-0.5361-1.9359-0.854-3.0839c-0.7337,0.293-1.537,0.6138-2.3402,0.9345
	c-0.2209-0.2298-0.4418-0.4595-0.6627-0.6892c0.9574-1.1088,1.9148-2.2176,3.1226-3.6165
	c-1.0351,0.2708-1.8008,0.4711-2.7017,0.7068c1.2028-2.7524,2.3121-5.291,3.4214-7.8297c-0.6496-0.2837-1.2991-0.5673-1.9487-0.851
	c-1.0882,2.5099-2.1763,5.0198-3.3385,7.7005c-0.2778-0.1464-0.8577-0.4522-1.4758-0.7781
	c-0.1711,1.0846-0.3384,2.1455-0.4182,2.6514c-1.7281-0.15-3.187-0.2766-4.9437-0.429c0.4009-0.726,0.8835-1.5999,1.3968-2.5296
	c-0.7037-0.4326-1.4727-0.9054-3.1788-1.9544c2.4411-0.2453,3.849-0.3867,5.6273-0.5654c-0.8146-0.5268-1.4474-0.936-1.9962-1.291
	c2.658-1.0694,5.1661-2.0784,7.6742-3.0875c-0.2467-0.6784-0.4934-1.3568-0.74-2.0352c-1.9315,0.7582-3.8205,1.6661-5.8073,2.2286
	c-1.6822,0.4763-3.4775,0.5531-4.6298,0.7205c-1.0935-1.3373-2.0504-2.5074-3.1067-3.7992c0.767-0.2091,1.6675-0.4546,2.745-0.7484
	c-0.2217-0.8233-0.45-1.6711-0.6782-2.5188c0.192-0.1742,0.3839-0.3484,0.5759-0.5226c1.0388,0.8891,2.0777,1.7783,3.4424,2.9463
	c-0.1844-0.9974-0.3216-1.7397-0.484-2.6182c2.7047,1.304,5.158,2.4868,7.6113,3.6696c0.2133-0.4081,0.4267-0.8162,0.64-1.2243
	c-1.1429-3.2039-3.9802-3.5658-7.5339-3.5591c0.7545-0.9485,1.1998-1.5084,1.6669-2.0956c-1.1378-0.1269-2.4272-0.2708-4.5985-0.513
	c1.3381-0.8964,2.0027-1.3416,2.6715-1.7896c-0.5011-0.8853-1.0107-1.7857-1.5204-2.6862c0.1541-0.1791,0.3081-0.3582,0.4622-0.5372
	c0.8761,0.4809,1.7522,0.9618,2.7958,1.5346c0.3389-0.7063,0.7119-1.4838,1.0849-2.2614c0.2859,0.0181,0.5719,0.0361,0.8578,0.0542
	c0.0977,1.3501,0.1955,2.7002,0.326,4.5038c0.6255-0.7955,1.0595-1.3475,1.5398-1.9584c1.0313,2.6296,2.0607,5.2545,3.0902,7.8794
	c0.6307-0.196,1.2615-0.3921,1.8922-0.5882c-0.6096-1.8459-1.071-3.7605-1.8829-5.5126c-0.5081-1.0966-2.4465-1.8822-0.1722-3.1378
	c0.048-0.0265-0.7384-1.5647-0.9497-2.0078c1.3334-0.9588,2.5363-1.8239,3.9241-2.8217c0.1939,0.6505,0.4753,1.5942,0.7953,2.6674
	c0.7627-0.3,1.5081-0.5933,3.0377-1.1951c-1.3907,4.4543-2.5732,8.242-3.7558,12.0297c0.5314,0.2233,1.0628,0.4467,1.5942,0.67
	c1.2455-2.5558,2.4911-5.1117,3.791-7.7791c0.1859,0.1017,0.781,0.4271,1.3873,0.7588c0.1286-1.139,0.2508-2.2207,0.4723-4.182
	c0.8953,1.3049,1.3452,1.9606,1.7946,2.6157c0.8884-0.4381,1.8095-0.8923,3.6235-1.7868c-0.9711,1.7857-1.4586,2.6823-2.0175,3.7101
	c0.763,0.3814,1.5251,0.7624,2.2872,1.1433c-0.0248,0.2465-0.0497,0.493-0.0745,0.7396c-1.3873,0.1232-2.7746,0.2463-4.4315,0.3935
	c0.7311,0.5324,1.3081,0.9525,1.8476,1.3454c-2.6603,1.0633-5.1824,2.0714-7.7046,3.0796c0.0953,0.447,0.1905,0.894,0.2858,1.341
	c1.0065,0.0807,2.3301,0.6104,2.9635,0.163c2.4931-1.7611,5.445-1.7397,7.8154-2.3769c0.8739,1.2122,1.7184,2.3836,2.7563,3.8232
	c-0.5014,0.1819-1.425,0.517-2.5384,0.9209c0.2109,0.7231,0.453,1.5536,0.9546,3.2734c-1.6592-1.1177-2.6027-1.7532-3.5863-2.4157
	c-0.2184,0.6224-0.4333,1.2344-0.5375,1.5313c-2.5067-1.166-4.8969-2.2779-7.2872-3.3897
	C245.0484,341.2147,244.7683,341.9694,244.4882,342.7242z"/>
<path d="M537.8359,450.4244c0.5963,1.8882,0.8998,2.8494,1.2077,3.8243c0.8279-0.2876,1.5797-0.5487,2.3314-0.8098
	c0.1981,0.1995,0.3963,0.399,0.5944,0.5984c-0.769,0.9621-1.538,1.9242-2.5109,3.1413c0.7786-0.0516,1.4008-0.0929,2.1622-0.1433
	c-1.2448,2.7398-2.4078,5.2994-3.5709,7.8591c0.6409,0.3091,1.2817,0.6183,1.9226,0.9274c1.2424-2.526,2.4848-5.0519,3.7979-7.7213
	c0.2148,0.2384,0.7013,0.7782,1.2682,1.4073c0.1298-1.3959,0.2515-2.7056,0.4699-5.0549c0.9224,1.4453,1.3498,2.1151,1.8384,2.8808
	c0.7744-0.4474,1.6912-0.9772,3.6082-2.085c-0.9597,1.9396-1.4416,2.9135-1.9393,3.9195c0.7455,0.3883,1.4922,0.7773,2.239,1.1664
	c-0.0292,0.2327-0.0583,0.4654-0.0875,0.698c-1.4,0.1267-2.7999,0.2534-4.4918,0.4065c0.7899,0.5213,1.3996,0.9237,1.9965,1.3176
	c-2.6908,1.116-5.2689,2.1852-7.847,3.2543c0.2643,0.6566,0.5286,1.3131,0.7929,1.9697c2.4176-0.955,4.8352-1.9099,7.4248-2.9327
	c-0.0206,0.4631-0.0521,1.1729-0.0917,2.0631c1.0375-0.8345,2.055-1.653,2.8339-2.2795c1.082,1.3771,2.0388,2.5947,3.1207,3.9716
	c-0.7309,0.2538-1.6095,0.5591-2.6799,0.9309c0.1764,0.7681,0.3698,1.6101,0.6752,2.9398
	c-4.1523-1.3084-7.7985-2.4574-11.4448-3.6063c0.9061,2.8649,2.3259,4.5271,5.1611,4.2176c0.593-0.0648,1.2512,0.4681,1.8793,0.7256
	c-0.3627,0.4154-0.7253,0.8308-1.1754,1.3464c1.2292,0.2703,2.4723,0.5437,3.2559,0.716c-0.2932,1.6025-0.5449,2.9781-0.852,4.657
	c-0.4299-0.2-1.3292-0.6184-2.4194-1.1257c-0.3461,0.6309-0.7471,1.3618-1.1482,2.0928c-0.2383-0.0233-0.4766-0.0465-0.715-0.0698
	c-0.1273-1.3886-0.2546-2.7772-0.4059-4.4275c-0.547,0.783-0.9959,1.4255-1.3148,1.8819c-1.162-2.6772-2.2769-5.2455-3.3917-7.8139
	c-0.4828,0.138-0.9658,0.2759-1.4487,0.4139c0,1.1811-0.2922,2.4581,0.0579,3.5244c0.8616,2.6248,2.0184,5.1528,3.3374,8.4142
	c-1.5698-0.2864-2.3064-0.4208-3.1029-0.5661c-0.2921,0.9006-0.5838,1.7999-1.1739,3.6193
	c-0.6428-1.885-0.9993-2.9301-1.3558-3.9714c-0.7512,0.3015-1.5021,0.5992-2.2531,0.8969
	c-0.2043-0.2126-0.4088-0.4251-0.6132-0.6376c0.9522-1.1092,1.9044-2.2184,3.1287-3.6445c-1.0811,0.2693-1.86,0.4633-2.798,0.6969
	c1.2596-2.7057,2.4126-5.1824,3.5656-7.659c-4.6019,0.5686-4.512,3.7924-4.5629,7.7357c-1.1011-1.3474-1.4977-1.8327-1.9855-2.4297
	c-0.2448,1.2942-0.4833,2.556-0.6266,3.3133c-1.6586-0.2394-3.0481-0.4399-4.8068-0.6937c0.2279-0.4398,0.6669-1.2871,1.1987-2.3135
	c-0.6554-0.3863-1.4108-0.8314-2.1662-1.2766c0.0217-0.2836,0.0433-0.5672,0.065-0.8508c1.3601-0.1166,2.7202-0.2332,4.5292-0.3883
	c-0.8925-0.5425-1.5101-0.9181-2.694-1.6377c3.2618-1.0591,7.0997,0.1744,8.3271-5.0728c-3.1574,1.1916-5.6877,2.1466-8.4094,3.1738
	c-0.0582-0.2284-0.2028-0.7954-0.3806-1.4927c-0.9011,0.6881-1.7606,1.3445-3.2704,2.4974
	c0.2261-1.5436,0.3453-2.3578,0.4653-3.1771c-0.8798-0.2221-1.8006-0.4545-2.7215-0.6869c-0.041-0.2322-0.082-0.4645-0.1229-0.6967
	c0.8992-0.3135,1.7983-0.627,2.9618-1.0326c-0.218-0.7388-0.463-1.5686-1.0315-3.4951c1.9248,1.4629,3.0132,2.29,4.1448,3.1501
	c0-0.7917,0-1.549,0-2.0547c2.5162,1.1239,4.9739,2.2217,7.4315,3.3195c0.3111-0.6615,0.6221-1.3231,0.9331-1.9846
	c-2.4201-1.1356-4.8403-2.2711-7.417-3.4801c0.1927-0.229,0.6563-0.7795,1.1191-1.3297c-1.1971-0.1296-2.3933-0.2595-4.3159-0.4684
	c1.0698-0.8661,1.6204-1.3119,2.3151-1.8743c-0.3627-0.722-0.8234-1.639-1.7311-3.4457c1.7415,0.8065,2.6396,1.2225,3.5683,1.6526
	c0.4124-0.6581,0.8463-1.3505,1.7916-2.859c0.3496,2.1971,0.5649,3.5501,0.7932,4.9854c0.4811-0.5791,0.9257-1.1143,1.2944-1.5583
	c1.0575,2.7141,2.0545,5.2728,3.0515,7.8316c0.65-0.2336,1.3-0.4673,1.95-0.7009c-0.9321-2.581-1.8641-5.162-2.8375-7.857
	c0.4129,0.0634,1.1283,0.1733,2.0226,0.3107c-0.8976-1.1862-1.737-2.2954-2.9949-3.9577c1.483,0.2556,2.2693,0.3911,3.0752,0.5299
	C536.9153,453.2,537.228,452.2574,537.8359,450.4244z"/>
<path d="M351.0766,487.5665c-0.948-0.3272-1.8961-0.6544-2.7925-0.9638c-0.1298,0.9184-0.3105,2.1966-0.6229,4.4064
	c-0.8282-1.469-1.1981-2.125-1.5953-2.8295c-0.8164,0.4433-1.7779,0.9654-2.7394,1.4875c-0.1726-0.1728-0.3453-0.3456-0.518-0.5184
	c0.52-0.8682,1.0399-1.7363,1.648-2.7516c-0.7458-0.3555-1.5197-0.7244-2.2936-1.0933c0.0064-0.2601,0.0128-0.5202,0.0192-0.7803
	c1.3537-0.1163,2.7074-0.2327,4.1976-0.3607c-0.612-0.5857-1.1603-1.1105-2.0633-1.9746c3.1223-0.9118,6.9155,0.207,8.2256-5.1287
	c-2.6378,1.1108-4.5332,2.0984-6.5445,2.6963c-1.6175,0.4809-3.3751,0.4901-5.4035,0.7515c0.0313-0.565,0.0715-1.2902,0.1298-2.3415
	c-0.6919-0.1886-1.6277-0.4438-2.5636-0.6989c-0.0213-0.2403-0.0426-0.4805-0.0639-0.7207
	c0.9428-0.2633,1.8856-0.5266,2.9746-0.8307c-0.2487-0.757-0.5232-1.5923-1.0026-3.0515c4.3201,1.3631,8.0576,2.5424,12.4828,3.9388
	c-1.5082-4.1426-4.1056-4.6801-7.4028-4.3973c0.0469-0.8788,0.0863-1.6173,0.1314-2.4622c-0.9134-0.1282-1.8689-0.2624-3.6259-0.509
	c1.2215-0.8871,1.8877-1.371,2.5665-1.864c-0.4417-0.7827-0.942-1.6693-1.4424-2.5559c0.1526-0.1646,0.3052-0.3292,0.4578-0.4938
	c0.9944,0.5429,1.9888,1.0857,2.963,1.6176c0.2775-0.7553,0.5559-1.5133,0.8344-2.2714c0.2858-0.0027,0.5716-0.0055,0.8574-0.0083
	c0.1189,1.3469,0.2378,2.6938,0.3829,4.3383c0.5826-0.7016,1.0438-1.257,1.5445-1.8599c1.0702,2.671,2.0905,5.2173,3.1107,7.7635
	c0.6854-0.2782,1.3708-0.5563,2.0563-0.8345c-1.0105-2.4829-2.0211-4.9658-3.1189-7.6632c0.6277,0.1531,1.269,0.3094,2.2025,0.537
	c-0.9223-1.2601-1.7381-2.3747-2.2935-3.1336c1.3417-0.9661,2.5002-1.8001,3.972-2.8599c0.177,0.5805,0.4945,1.622,0.8123,2.6651
	c0.7671-0.292,1.5339-0.5856,2.3007-0.8792c0.2078,0.2012,0.4155,0.4023,0.6233,0.6035c-0.9395,1.1263-1.8791,2.2526-2.9663,3.5559
	c0.9598-0.1456,1.7607-0.2671,2.3847-0.3618c-1.1081,2.6202-2.1543,5.0942-3.2006,7.5682c0.6497,0.2867,1.2993,0.5733,1.949,0.86
	c1.109-2.4676,2.2181-4.9353,3.3997-7.5642c0.2714,0.1979,0.7903,0.5762,1.4382,1.0486c0.1776-1.2528,0.3446-2.4302,0.6147-4.3352
	c0.8734,1.2007,1.3607,1.8706,1.8657,2.5648c0.7645-0.5174,1.5482-1.0478,2.3319-1.5782c0.2353,0.1675,0.4705,0.3351,0.7057,0.5026
	c-0.5063,0.9114-1.0126,1.8228-1.5726,2.8309c0.6821,0.3462,1.4405,0.731,2.1989,1.1159c-0.013,0.2356-0.026,0.4713-0.0389,0.7069
	c-1.2589,0.1277-2.5178,0.2554-4.2325,0.4293c0.8687,0.4311,1.528,0.7583,2.5431,1.2621c-3.513,1.3946-6.1217,2.4302-8.7304,3.4659
	c0.259,0.6554,0.518,1.3109,0.777,1.9663c2.4623-0.9745,4.9246-1.949,7.565-2.994c-0.0256,0.5009-0.0658,1.2866-0.1039,2.07
	c1.1149-0.8716,2.2276-1.741,3.3403-2.6104c0.1982,0.1476,0.3963,0.2952,0.5944,0.4427c-0.2344,0.7237-0.4688,1.4474-0.7533,2.3256
	c0.979,0.2501,1.9558,0.4997,2.9326,0.7492c0.0327,0.245,0.0654,0.49,0.0981,0.735c-1.0629,0.2652-2.1257,0.5304-3.187,0.7952
	c0.3048,0.7917,0.629,1.634,0.9533,2.4763c-0.2219,0.1712-0.4438,0.3425-0.6657,0.5137c-1.1411-0.9709-2.2822-1.9419-3.6868-3.1372
	c0.2721,1.0604,0.4749,1.851,0.7192,2.8029c-2.7148-1.2745-5.1869-2.435-7.659-3.5955c-0.1909,0.3705-0.3819,0.7411-0.5729,1.1116
	c1.1852,3.4029,4.2904,3.5956,7.7946,3.7896c-0.7351,0.9828-1.1791,1.5764-1.648,2.2032c1.2488,0.0978,2.4678,0.1932,4.7654,0.3731
	c-1.4973,0.9639-2.1763,1.401-2.9034,1.869c0.4719,0.7204,1.0485,1.6006,1.6251,2.4809c-0.1899,0.2471-0.3799,0.4942-0.5699,0.7413
	c-0.8992-0.5483-1.7984-1.0967-2.7035-1.6487c-0.4087,0.7747-0.8345,1.5818-1.2603,2.3888
	c-0.2438-0.0204-0.4876-0.0407-0.7315-0.061c-0.1057-1.3952-0.2114-2.7904-0.3495-4.614c-0.6003,0.8232-1.0164,1.394-1.8011,2.4702
	c-1.282-3.0187,0.2719-7.2518-5.1937-8.1523c1.175,2.9764,2.1445,5.4323,3.1919,8.0854c-0.1381,0.0481-0.747,0.2601-1.437,0.5004
	c0.6784,0.8895,1.3358,1.7515,2.5313,3.319c-1.6084-0.3196-2.4258-0.4821-3.254-0.6467c-0.244,0.9212-0.5047,1.905-0.7654,2.8888
	c-0.2251,0.0121-0.4502,0.0242-0.6753,0.0363c-0.2683-0.9527-0.5366-1.9055-0.8446-2.9992
	c-0.7742,0.2248-1.6147,0.4689-2.4551,0.7129c-0.171-0.2092-0.3419-0.4184-0.5128-0.6276c0.8998-1.0444,1.7996-2.0889,2.6528-3.0792
	c-0.979-0.257-1.9815-0.5203-2.9847-0.7841c2.5491-1.7286,4.5993-3.6747,3.1676-7.3533
	C350.821,481.7893,350.1842,484.3556,351.0766,487.5665z"/>
<path d="M244.488,478.2516c-10.0664-3.3144-20.3593-5.0988-21.0366-18.35c1.9085,0.5411,3.5342,0.9239,5.1073,1.4609
	c8.8365,3.0168,17.6472,6.11,26.4999,9.0783c1.729,0.5797,3.5906,0.8845,5.4142,1.0346c3.2142,0.2645,5.5192,1.7604,6.4311,4.8104
	c0.8861,2.9642,0.236,5.7539-2.3625,7.7136c-9.9727,7.5211-21.1587,12.6104-33.0791,16.1128
	c-3.4703,1.0197-6.8297-0.9595-8.1634-4.2868c-1.3047-3.2552-0.1666-6.8054,3.1783-8.6273
	c4.2621-2.3215,8.6926-4.3337,13.0493-6.4816C240.8453,480.0663,242.1605,479.4083,244.488,478.2516z M233.091,465.0892
	c-2.3361-0.8616-4.6723-1.7232-7.5806-2.7958c1.2348,5.7299,4.0475,9.0174,8.6384,10.5771
	c6.9388,2.3573,13.9719,7.0121,20.9149-0.3983c-6.8748-2.4377-13.7764-4.8849-20.678-7.3321
	C233.9541,465.1231,233.5225,465.1061,233.091,465.0892z M265.4571,479.6327c0.0772-5.2176-3.8556-7.5906-7.9633-5.6424
	c-9.8963,4.6935-19.7121,9.5571-29.5554,14.3623c-0.4435,0.2165-0.8803,0.4853-1.2488,0.8107
	c-2.1172,1.8697-2.8866,4.1943-1.4084,6.671c1.504,2.5201,3.9186,3.6457,6.7031,2.1536c2.1662-1.1607,4.2326-2.6251,6.0679-4.2632
	c5.1637-4.6089,11.0574-7.4896,17.9128-8.5794c2.2967-0.3651,4.6779-1.0368,6.6732-2.1764
	C264.0596,482.1571,264.9002,480.3287,265.4571,479.6327z M255.9394,487.913c-6.6134,0.0616-13.3166,3.4475-15.9859,7.7757
	C245.8021,492.8439,250.8708,490.3784,255.9394,487.913z"/>
<path d="M473.1349,417.8954c-1.403-0.105-2.6687,0.1809-3.3111-0.3248c-1.4704-1.1574-3.3478-2.5399-3.711-4.1376
	c-0.3167-1.3936,1.1631-3.232,1.964-4.8159c0.1842-0.3644,0.8146-0.6266,1.2793-0.7068c5.721-0.9886,8.3875-4.6495,9.3935-10.1219
	c0.566-3.0789,2.549-3.8658,5.6058-2.6388c6.479,2.6005,13.0297,5.0302,19.6038,7.3825c2.867,1.0258,4.0334,2.8058,2.3948,5.3862
	c-5.7583,9.0679-8.4304,19.4634-12.8613,29.088c-2.8103,6.1044-10.1317,8.4333-16.3122,5.8549
	c-6.1316-2.558-9.3362-9.2604-7.3805-15.7761C470.6935,424.1087,471.9126,421.2302,473.1349,417.8954z M475.8218,415.1563
	c-1.6789,4.5657-3.1622,8.2582-4.3955,12.0323c-1.8942,5.7969,0.6983,11.6588,6.0503,14.0705
	c5.2783,2.3786,11.8179,0.7827,14.2646-4.4252c3.4176-7.2742,5.9921-14.9445,9.0756-22.8242
	c-5.6032-2.1142-10.9955-3.4978-15.7202-6.0955c-5.9809-3.2885-10.7823-0.5651-15.7241,1.828
	c-0.9898,0.4793-1.9671,3.0284-1.5262,3.915c0.5876,1.1818,2.4937,1.9247,3.979,2.3626
	C472.7233,416.2846,473.8968,415.6147,475.8218,415.1563z M504.0959,403.2288c-1.3836,2.4261-2.1471,3.7648-2.9105,5.1035
	c-0.2679-0.1427-0.5357-0.2854-0.8036-0.4281c0.3808-1.4652,0.7615-2.9303,1.1906-4.5817
	c-4.8459-1.8091-9.4486-3.5274-13.9391-5.2038c-0.8983,1.3132-1.5141,2.2136-2.1299,3.1139
	c-0.1951-0.0992-0.3901-0.1985-0.5851-0.2977c0.0909-1.065,0.1819-2.1301,0.2729-3.1951c-0.1686-0.0395-0.3372-0.0791-0.5058-0.1186
	c-0.7817,1.7057-1.5634,3.4113-2.3451,5.117c-0.3116-0.1204-0.6231-0.2407-0.9347-0.3611c0.2635-0.9905,0.5567-1.9743,0.7822-2.9734
	c0.2332-1.0331,0.4006-2.0811,0.7426-3.8969c-5.5375,4.6021-5.2379,8.1224,0.0128,10.0988c1.3684,0.5151,2.7719,0.937,4.2931,1.4465
	c0.9777-2.0896,1.8653-3.9868,2.753-5.8839c0.3314,0.1317,0.6627,0.2634,0.9941,0.3951c-0.6062,2.0075-1.2124,4.015-1.8186,6.0226
	c0.2585,0.1066,0.5169,0.2131,0.7754,0.3197c0.9307-1.9508,1.8614-3.9017,2.7921-5.8525c0.2566,0.1023,0.5132,0.2045,0.7698,0.3068
	c-0.5467,2.0502-1.0934,4.1004-1.7236,6.464c3.1895,1.2266,6.1425,2.4964,9.1976,3.4329c0.6743,0.2068,2.0474-0.5468,2.5056-1.2465
	c0.7994-1.2207,1.3319-2.7077,1.5954-4.1526C505.2281,406.0298,504.6283,405.0652,504.0959,403.2288z"/>
<path d="M387.1672,254.952c3.4936,0.0004,6.9891,0.0753,10.4802-0.0179c4.7687-0.1274,8.6634,1.4462,12.0245,4.9532
	c1.0569,1.1028,3.2567,1.4538,4.9602,1.5276c4.6952,0.2032,4.7665,0.139,4.7928,4.9099c0.0034,0.6238,0.0027,1.2477,0.0005,1.8716
	c-0.0253,7.1198,0.6286,7.237-6.7268,7.16c-1.2469-0.013-2.7656,0.8672-3.7166,1.7903c-5.6053,5.4407-12.9165,5.8666-18.7882,0.61
	c-2.4045-2.1526-4.0432-1.9744-6.3682,0.0779c-5.8865,5.1961-13.0403,4.6265-18.8402-0.7174
	c-1.382-1.2734-3.9381-1.7258-5.9615-1.7443c-3.089-0.0283-4.4014-1.168-4.2173-4.1937c0.0605-0.9944,0.0083-1.9958,0.0064-2.9939
	c-0.012-6.2987-0.456-7.0498,6.3824-6.7867c1.143,0.044,2.6271-0.7035,3.4396-1.5682c3.2034-3.4093,7.0387-4.9887,11.6774-4.8936
	C379.9294,255.011,383.5489,254.9516,387.1672,254.952z M410.7145,268.1047c-0.0259-6.4678-5.1866-11.3258-12.3148-11.4058
	c-7.4874-0.084-14.9766-0.0393-22.4646,0.0068c-1.2318,0.0076-2.4891,0.2011-3.6877,0.498
	c-4.6795,1.1591-7.964,4.7418-8.6092,9.2723c-0.6709,4.7107,1.3682,9.1065,5.3396,11.5107
	c4.1281,2.4991,9.0186,2.1964,12.9759-0.8032c5.0671-3.8408,5.0355-3.7976,10.4092,0.1404
	c3.7398,2.7407,7.8033,3.1733,11.9803,1.0555C408.5155,276.264,410.4688,272.6945,410.7145,268.1047z M417.5822,263.5317
	c-2.1336,0-3.8959,0-5.4031,0c0,3.4346,0,6.5679-0.0023,9.7101c1.7679,0,3.5358,0,5.4053,0
	C417.5822,269.8767,417.5822,266.8195,417.5822,263.5317z M361.9066,263.6022c-1.583,0-3.3176,0-5.008,0c0,3.4432,0,6.5121,0,9.622
	c1.9466,0,3.5835,0,5.008,0C361.9066,269.8233,361.9066,266.7509,361.9066,263.6022z"/>
<path d="M269.9933,519.2725c-5.1647,1.322-8.1622,4.4553-9.5242,9.6358c-1.5823-4.8962-4.2802-8.4607-9.812-9.5621
	c5.1618-1.4345,8.3973-4.4025,9.7078-9.7574C261.8024,514.6462,264.7294,517.9337,269.9933,519.2725z M260.4547,515.0863
	c-1.4096,1.4261-2.957,2.9917-4.0414,4.0888c1.1562,1.3817,2.6369,3.1511,3.7763,4.5126c1.6043-1.5889,3.1691-3.1386,4.603-4.5587
	C263.5152,517.9385,261.8959,516.4294,260.4547,515.0863z"/>
<path d="M532.8545,516.6052c-4.5209,1.4067-7.3296,4.035-8.4736,8.6358c-1.5807-4.3691-3.9886-7.4071-8.7579-8.4839
	c4.2759-1.5733,7.6384-3.8132,8.5584-8.9283C525.5015,512.5049,528.1714,515.4394,532.8545,516.6052z M520.7432,516.6071
	c1.1107,1.1711,2.3552,2.4833,3.2025,3.3767c1.3598-1.1175,2.7584-2.2668,3.9222-3.2233c-1.2241-1.257-2.4815-2.5482-3.653-3.7512
	C523.0663,514.1997,521.8156,515.4958,520.7432,516.6071z"/>
<path d="M532.7169,339.6844c-1.3239-3.9387-3.5355-6.6735-7.9814-7.7287c4.3292-1.1812,6.7995-3.7845,7.9507-8.0239
	c1.2213,4.2556,3.6949,6.8926,8.0838,8.0041C536.4205,332.9889,533.9807,335.5355,532.7169,339.6844z M535.8963,332.2798
	c-1.0677-1.3501-2.051-2.5935-2.5275-3.1963c-1.5569,1.0226-2.8782,1.8906-4.2867,2.8158c1.4141,1.2952,2.5583,2.3433,3.6639,3.356
	C534.0425,334.0307,535.1262,333.0072,535.8963,332.2798z"/>
<path d="M549.8252,407.9023c2.4437,1.3274,2.9128,2.2766,1.8237,4.6335c-1.0411,2.2533-2.2555,4.3181,1.8683,6.5546
	c-4.4632-0.6122-5.4483-2.311-4.4398-5.2258c0.3611-1.0435,1.0517-2.0091,1.2252-3.0702
	C550.4422,409.9413,550.0289,408.9979,549.8252,407.9023z"/>
<path d="M293.4989,455.355c1.5936,2.0514,3.1872,4.1028,4.7808,6.1542c-0.3898,0.3092-0.7796,0.6184-1.1694,0.9276
	c-1.5789-2.0641-3.1577-4.1283-4.7365-6.1925C292.7488,455.9479,293.1239,455.6514,293.4989,455.355z"/>
<path d="M234.3857,465.1401c1.8041,0.9454,3.5851,1.939,5.4195,2.8214c1.5743,0.7574,3.2098,1.3879,4.8182,2.0744
	c-0.1802,0.4469-0.3603,0.8937-0.5405,1.3406c-4.8749-1.7428-9.7499-3.4856-14.6248-5.2284c0.0711-0.353,0.1422-0.706,0.2133-1.059
	c1.1399,0,2.2798,0,3.4197,0C233.5225,465.1061,233.9541,465.1231,234.3857,465.1401z"/>
<path d="M387.4655,441.9102c-9.7349-0.0022-19.4699,0.0175-29.2047-0.0101c-5.2494-0.0149-7.2887-2.0221-7.3216-7.1794
	c-0.035-5.4911-0.0646-10.9834,0.013-16.4737c0.0601-4.2495,2.2449-6.5099,6.4786-6.5213
	c19.9689-0.0537,39.9381-0.0551,59.9071-0.006c4.4237,0.0109,6.4797,2.256,6.5157,6.818c0.0432,5.4911,0.0482,10.983,0.0067,16.4742
	c-0.0361,4.771-2.0789,6.8643-6.8159,6.8865C407.1849,441.9448,397.3251,441.9124,387.4655,441.9102z M422.1709,424.8385
	c-23.3191,0-46.2351,0-69.509,0c0,3.8124-0.1193,7.4125,0.0385,11.0004c0.122,2.7752,1.742,4.338,4.6059,4.3398
	c20.12,0.0125,40.24,0.0265,60.36-0.0065c2.8326-0.0046,4.418-1.5983,4.485-4.4381
	C422.2337,432.2411,422.1709,428.7447,422.1709,424.8385z M352.642,422.6178c23.402,0,46.3904,0,69.4144,0
	c0.0546-0.9267,0.115-1.5468,0.1239-2.1675c0.0848-5.8997-1.0059-7.0225-6.8469-7.033c-4.4933-0.0081-8.9867-0.0003-13.48-0.0005
	c-14.3538-0.0008-28.7076-0.013-43.0613,0.0029c-4.8383,0.0053-6.1425,1.3672-6.1499,6.264
	C352.6409,420.5533,352.642,421.4229,352.642,422.6178z"/>
<path d="M366.4198,334.592c-1.0312,1.2641-1.7851,2.3754-2.7198,3.3047c-7.7782,7.7335-6.2031,7.8359-13.8485,0.2244
	c-3.2912-3.2767-3.2933-3.845,0.0757-7.2104c7.5085-7.5007,6.0415-7.4615,13.575,0.063
	C364.5197,331.9901,365.3239,333.2197,366.4198,334.592z M349.5452,333.957c2.5032,2.91,4.7846,5.5622,6.7278,7.8213
	c2.8934-2.5479,5.4526-4.8015,8.0623-7.0995c-2.7193-2.7873-5.1136-5.2415-7.4904-7.6779
	C354.1849,329.5356,351.7065,331.8973,349.5452,333.957z"/>
<path d="M418.413,324.851c1.3676,1.0729,2.604,1.8496,3.6055,2.8593c7.478,7.5392,7.7489,5.9789,0.1066,13.6017
	c-3.3405,3.3321-3.8462,3.3277-7.2421-0.0711c-7.4314-7.4378-7.5331-5.899,0.1927-13.5794
	C416.0135,326.7292,417.1012,325.9478,418.413,324.851z M418.9112,327.446c-2.6278,2.5496-5.1488,4.9955-6.9048,6.6992
	c2.1234,2.6824,4.2642,5.3867,6.0597,7.6548c2.8698-2.6249,5.4038-4.9427,8.0597-7.3719
	C423.5659,331.9507,421.1657,329.6279,418.9112,327.446z"/>
<path d="M359.6539,390.5679c-1.2725,1.0519-2.0478,2.1921-2.8124,2.185c-0.7682-0.0071-1.5259-1.1567-2.2882-1.8056
	c0.7151-0.818,1.3042-2.0273,2.1909-2.3131C357.3122,388.4511,358.3193,389.6309,359.6539,390.5679z"/>
<path d="M359.6684,400.284c-1.2813,1.0282-2.2185,2.2815-2.8054,2.1346c-0.8958-0.2242-1.5493-1.416-2.3057-2.1971
	c0.7251-0.6786,1.4183-1.8481,2.1841-1.8978C357.5093,398.274,358.3496,399.3416,359.6684,400.284z"/>
<path d="M356.658,383.4374c-0.9837-1.4317-2.122-2.3935-1.9601-3.0185c0.2332-0.9001,1.4113-1.5555,2.1862-2.3153
	c0.6486,0.772,1.762,1.5155,1.8116,2.3242C358.7426,381.1932,357.6731,382.0271,356.658,383.4374z"/>
<path d="M421.6443,380.4712c-1.4427,0.9557-2.4189,2.0747-3.0452,1.9046c-0.8986-0.2439-1.5419-1.4279-2.2942-2.2105
	c0.7295-0.6906,1.4954-1.9685,2.1794-1.9261C419.3813,378.2947,420.2137,379.3918,421.6443,380.4712z"/>
<path d="M418.3302,393.774c-0.9424-1.438-2.0718-2.4372-1.8929-3.0618c0.2542-0.8878,1.3816-1.8412,2.3135-2.0835
	c0.4532-0.1178,1.9038,1.3724,1.8391,2.0299C420.5,391.57,419.4085,392.3828,418.3302,393.774z"/>
<path d="M418.662,403.3453c-1.0515-1.2512-2.2103-2.0251-2.2201-2.8131c-0.0096-0.7752,1.1466-1.5648,1.7912-2.3481
	c0.836,0.7151,2.0974,1.3032,2.3617,2.1888C420.7775,400.9853,419.5835,402.0085,418.662,403.3453z"/>
<path d="M289.4086,384.9169c-2.1518,1.3976-3.3488,2.7773-4.5027,2.7421c-0.9983-0.0305-2.8591-1.8532-2.7163-2.5526
	c0.2474-1.212,1.6453-2.8635,2.7546-3.0288C285.9777,381.9236,287.2639,383.4653,289.4086,384.9169z"/>
<path d="M491.787,299.7796c-3.6432,0-7.0474,0-11.3293,0c1.6673-5.1006,3.1976-9.7819,4.9338-15.0934
	C490.7247,289.1083,490.7724,294.3639,491.787,299.7796z M488.8868,298.1427c-0.6015-3.3533-1.1658-6.4992-1.7302-9.6451
	c-0.5241,0.0118-1.0482,0.0237-1.5723,0.0355c-0.5211,3.1662-1.0422,6.3323-1.5816,9.6096
	C485.8288,298.1427,487.1728,298.1427,488.8868,298.1427z"/>
<path d="M431.5226,500.0372c0.1384,0.8021,0.4359,1.4553,0.3165,2.0203c-0.5139,2.4301-0.3818,5.7532-1.9178,7.038
	c-2.4556,2.054-4.5996-0.9476-6.693-2.3986c-0.8183-0.5672-1.902-1.0291-2.8739-1.0471c-3.4427-0.0636-4.1172-1.1866-2.6013-4.705
	c-3.8231-1.4555-4.0973-2.7338-1.5874-5.7393c0.8015-0.9598,1.0147-2.4269,1.4415-3.6808c1.5364-4.5135,5.3576-5.9178,9.2959-3.454
	c0.5377,0.3364,1.2844,0.4938,1.9285,0.4789c3.3023-0.0764,4.0639,1.1016,2.9054,4.626
	C435.939,495.4154,435.9407,496.8606,431.5226,500.0372z M430.5052,501.5069c-0.4647-0.1685-0.9294-0.337-1.394-0.5055
	c-1.8073,0.9727-3.6145,1.9455-6.5161,3.5071c2.712,1.3582,4.5529,2.28,6.3937,3.2019
	C429.4943,505.6426,429.9998,503.5748,430.5052,501.5069z M416.0994,497.3486c0.2492,0.4973,0.4984,0.9947,0.7476,1.4921
	c4.6057-2.4717,9.2115-4.9434,13.8172-7.4151c-0.2463-0.467-0.4927-0.9339-0.739-1.4009
	C425.3166,492.466,420.7079,494.9073,416.0994,497.3486z M418.4629,502.777c0.2525,0.4831,0.505,0.9662,0.7575,1.4493
	c4.6069-2.4567,9.2138-4.9134,13.8206-7.3701c-0.2465-0.4762-0.493-0.9524-0.7395-1.4286
	C427.6887,497.8774,423.0757,500.3272,418.4629,502.777z M425.7853,490.154c-0.0077-0.357-0.0154-0.7141-0.0232-1.0711
	c-1.1391-0.1241-2.6041-0.749-3.3475-0.2651c-1.4183,0.9231-2.4251,2.4784-3.6027,3.7713c0.2902,0.2644,0.5804,0.5287,0.8707,0.7932
	C421.7169,492.3061,423.7511,491.2301,425.7853,490.154z"/>
<path d="M452.0555,487.3339c-0.6876-0.8155-1.9406-1.661-2.0784-2.6604c-0.1183-0.8577,0.9899-1.9265,1.6496-2.8338
	c0.3972-0.5463,1.1344-0.8755,1.4443-1.4502c2.5323-4.6962,6.5139-5.3129,10.494-1.6322c0.771,0.713,1.6762,1.4861,2.6479,1.7399
	c3.5632,0.9306,3.9256,1.7264,1.9283,5.0129c3.0103,3.186,2.9427,3.7357-0.5695,6.0436c-0.4475,0.2942-0.8383,0.8588-0.9972,1.3773
	c-0.8213,2.679-0.8349,6.249-4.3268,6.7112c-3.5432,0.469-4.3803-3.0011-5.8415-5.4092c-0.4179-0.6888-1.4435-1.0206-2.2105-1.4829
	c-1.1416-0.6881-2.9661-1.1321-3.2708-2.0765C450.6023,489.6732,451.7176,488.209,452.0555,487.3339z M458.3218,492.2584
	c-0.278,0.4312-0.5559,0.8624-0.8339,1.2936c1.5546,1.4593,3.1091,2.9185,4.6636,4.3778c0.975-1.817,1.95-3.6339,3.265-6.0843
	C462.2181,492.0317,460.27,492.1451,458.3218,492.2584z M452.5041,489.3653c0.0725,0.5505,0.1449,1.101,0.2174,1.6516
	c5.1781-0.4857,10.3562-0.9715,15.5343-1.4572c-0.0435-0.4828-0.0869-0.9657-0.1304-1.4485
	C462.9182,488.5291,457.7112,488.9472,452.5041,489.3653z M451.6466,483.5925c0.0547,0.5463,0.1095,1.0927,0.1642,1.6391
	c5.1385-0.4899,10.2771-0.9798,15.4156-1.4697c-0.0493-0.5041-0.0987-1.0082-0.148-1.5123
	C461.9345,482.6972,456.7906,483.1448,451.6466,483.5925z M454.8429,481.5733c2.8124-0.3583,5.0909-0.6486,7.7926-0.9928
	C458.8999,477.3934,456.5135,477.6281,454.8429,481.5733z"/>
<path d="M333.4678,500.4807c-1.4804,0.666-2.585,1.3471-3.7843,1.6394c-0.8332,0.2031-2.1789,0.2191-2.6349-0.2823
	c-1.8279-2.0096-3.5049-4.1838-4.9906-6.4586c-0.3872-0.5928-0.2123-2.1135,0.2914-2.5988c0.7989-0.7697,2.7581-1.7012,3.0704-1.393
	C327.8456,493.7818,329.9943,496.4571,333.4678,500.4807z"/>
<path d="M264.3079,478.3052c-1.4925,0.9826-2.5002,2.1627-3.314,2.0414c-0.8717-0.1299-1.5609-1.485-2.3297-2.3054
	c0.8929-0.8215,1.6947-2.0955,2.7117-2.3C262.0171,475.6123,262.9799,477.0832,264.3079,478.3052z"/>
<path d="M229.1564,490.2802c1.1501,1.4038,2.5436,2.414,2.3967,3.089c-0.2143,0.985-1.5356,1.7292-2.385,2.576
	c-0.7776-0.7937-2.1062-1.5415-2.1774-2.3941C226.9201,492.7049,228.1153,491.7531,229.1564,490.2802z"/>
<path d="M484.9154,432.1086c-1.8805-0.5708-3.782-1.148-5.9774-1.8144c1.8643-1.951,3.2843-3.437,4.7041-4.9229
	c-0.171-0.4301-0.342-0.8603-0.513-1.2905c-2.0303,0.1415-4.0605,0.283-6.167,0.4298c-0.0245-2.07,0.1013-4.1881,1.8386-5.2672
	c1.0719,1.8558,2.0859,3.6115,3.1,5.3672c0.882-0.6295,1.764-1.259,2.6461-1.8885c-0.0988-1.9011-0.1976-3.8021-0.295-5.6774
	c0.9335-0.1267,2.0906-0.2838,3.3525-0.4551c0.4694,0.6638,1.1201,1.5842,1.8382,2.5998c-1.1033,1.0462-2.4927,2.3638-3.8821,3.6813
	c0.1807,0.4274,0.3614,0.8547,0.542,1.2821c1.8152-0.0849,3.6303-0.1698,5.4744-0.256c0.2711,0.9065,1.0752,2.1546,0.7953,3.0721
	c-0.2699,0.8847-1.6588,1.428-2.6535,2.1965c-1.1262-1.1654-2.5415-2.63-3.9569-4.0947c-0.4266,0.1863-0.8533,0.3726-1.2799,0.5588
	C484.6192,427.6824,484.7566,429.7352,484.9154,432.1086z"/>
<path d="M387.0897,259.1788c3.8678,0.0044,7.7375-0.0734,11.6028,0.0243c4.7371,0.1198,8.1441,2.7159,9.178,6.7989
	c0.9766,3.8569-0.6646,7.9566-4.0343,10.0774c-3.5423,2.2295-7.4587,1.8682-11.0749-1.0219
	c-4.6258-3.6969-7.0177-3.7173-11.567-0.0987c-3.818,3.037-7.7887,3.38-11.3714,0.9825c-3.3074-2.2132-4.8359-6.3589-3.7589-10.1952
	c1.0988-3.9141,4.6421-6.4087,9.4215-6.5617c1.9942-0.0638,3.9922-0.0102,5.9886-0.0101
	C383.3459,259.1745,385.2178,259.1744,387.0897,259.1788z M382.9602,260.9991c-2.9307,0-5.7878-0.1474-8.6232,0.0385
	c-3.3074,0.2169-5.6108,2.1294-6.5185,5.2552c-0.8959,3.0849-0.129,5.8347,2.3295,7.5146
	C374.4854,269.4713,378.6451,265.3129,382.9602,260.9991z M386.5181,270.2267c1.7574,0.5355,3.2773,1.0522,4.8281,1.4482
	c0.7629,0.1949,1.9332,0.5423,2.3217,0.18c3.2265-3.0095,6.3134-6.1686,9.5847-9.424
	C396.9684,259.3377,393.6216,261,386.5181,270.2267z M392.0618,262.0199c-0.1231-0.4056-0.2462-0.8112-0.3693-1.2167
	c-1.8792,0.2428-4.3553-0.191-5.5324,0.8475c-4.6938,4.141-8.983,8.7405-13.422,13.1702c0.2889,0.339,0.5779,0.6779,0.8669,1.0169
	C382.6063,275.1671,385.5525,266.1327,392.0618,262.0199z M397.4964,275.279c5.9084,0.8211,9.5804-2.9994,8.4396-7.8819
	C403.3146,269.8453,400.5283,272.4474,397.4964,275.279z M394.9824,274.1006c-0.1602-0.1353-0.3204-0.2706-0.4807-0.4058
	c3.2636-3.2606,6.5272-6.5212,9.7908-9.7818c0.1882,0.1882,0.3763,0.3764,0.5645,0.5645
	C401.5655,267.6852,398.2739,270.8929,394.9824,274.1006z"/>
<path d="M356.5752,336.2104c-0.8648,0-1.816,0.2259-2.5704-0.0627c-0.775-0.2965-1.3578-1.0955-2.0248-1.6746
	c0.6212-0.6434,1.1689-1.7233,1.8785-1.843c1.6831-0.284,3.4746-0.3113,5.1589-0.0434c0.8685,0.1382,1.6014,1.1287,2.3956,1.734
	c-0.8711,0.6375-1.6758,1.4204-2.6374,1.86c-0.6132,0.2804-1.4589,0.0525-2.2003,0.0525
	C356.5752,336.2257,356.5752,336.2181,356.5752,336.2104z"/>
<path d="M418.4886,336.2045c-0.8741,0-1.8347,0.2271-2.5978-0.0639c-0.7627-0.2908-1.3277-1.1-1.9794-1.682
	c0.6097-0.6411,1.1334-1.686,1.8474-1.8381c1.4372-0.3062,3.0388-0.3885,4.4561-0.0605c1.0639,0.2462,1.946,1.278,2.9091,1.96
	c-0.9207,0.5692-1.7976,1.239-2.7798,1.6671c-0.5247,0.2287-1.2312,0.0406-1.8557,0.0406
	C418.4886,336.2198,418.4886,336.2122,418.4886,336.2045z"/>
</svg>
