<?xml version="1.0" encoding="utf-8"?>
<!-- Generator: Adobe Illustrator 16.0.0, SVG Export Plug-In . SVG Version: 6.00 Build 0)  -->
<!DOCTYPE svg PUBLIC "-//W3C//DTD SVG 1.1//EN" "http://www.w3.org/Graphics/SVG/1.1/DTD/svg11.dtd">
<svg version="1.1" id="Ebene_1" xmlns="http://www.w3.org/2000/svg" xmlns:xlink="http://www.w3.org/1999/xlink" x="0px" y="0px"
	 width="387.89px" height="243.28px" viewBox="0 0 387.89 243.28" enable-background="new 0 0 387.89 243.28" xml:space="preserve">
<path fill-rule="evenodd" clip-rule="evenodd" fill="#575756" d="M181.581,214.438c3.871,2.941,7.196,5.688,10.754,8.088
	c2.028,1.369,1.798,2.76,1.147,4.643c-0.753,2.178-2.253,2.086-3.987,1.674c-8.399-1.988-16.698-3.836-23.204-10.467
	c-3.161-3.223-7.699-5.096-11.692-7.629c3.031-3.576,7.017-5.295,11-6.902c5.36-2.164,8.649-5.91,9.982-11.537
	c1.338-5.648,3.824-11.012,4.2-16.902c0.089-1.393,0.651-2.533,1.751-3.449c6.718-5.6,10.451-12.533,10.295-21.533
	c-0.048-2.781,1.111-5.309,4.914-5.688c3.335-0.332,6.805-8.07,5.541-11.326c-0.356-0.918-0.719-1.898-0.759-2.863
	c-0.685-16.211-0.201-32.295,5.416-47.791c1.891-5.219,6.775-7.459,11.352-10.865c-2.178-1.064-3.821-2.059-5.592-2.699
	c-4.173-1.51-6.037-4.525-8.511-8.281c-4.735-7.191-8.013-15.248-13.367-22.027c-1.314-1.666-2.45-2.053-4.021-0.658
	c-7.312,6.498-16.664,11.639-15.15,23.855c0.338,2.727-1.221,5.426-0.96,8.328c0.47,5.227-1.553,8.803-7.232,9.268
	c-1.602,0.131-2.156,0.896-2.823,2.23c-2.476,4.963-6.284,8.049-12.178,7.766c-2.468-0.119-2.444,1.125-2.153,3.189
	c0.871,6.182-1.052,11.811-2.831,17.746c-1.451,4.842-5.173,8.738-5.4,13.764c-0.6,13.258-8.769,21.58-18.889,27.963
	c-9.228,5.822-17.797,12.086-25.124,20.238c-4.353,4.844-10.517,7.533-16.327,10.373c-4.171,2.039-8.023,4.055-8.953,9.139
	c-0.256,1.4-1.078,2.502-2.417,2.961c-3.995,1.375-6.745,3.885-8.485,7.826c-0.877,1.986-2.942,2.641-5.095,1.383
	c-2.044-1.193-2.601-2.986-1.715-5.115c0.699-1.68,1.194-3.93,2.518-4.783c8.473-5.471,12.057-16.197,22.631-19.721
	c6.476-2.158,12.177-6.672,16.71-12.277c6.2-7.666,15.063-11.861,22.987-17.332c7.237-4.994,13.372-11.16,14.203-20.959
	c0.575-6.785,4.072-12.754,6.697-18.943c1.488-3.51,2.349-7.199,1.654-11.105c-1.439-8.096,1.959-12.189,10.215-12.393
	c3.013-0.074,4.54-1.766,4.895-4.598c0.527-4.215,3.066-6.119,7.091-6.014c1.466,0.039,2.184-0.051,2.066-1.68
	c-0.228-3.166,1.074-6.35,0.841-9.316c-1.025-13.098,8.731-19.375,16.401-26.922c5.223-5.139,10.954-1.971,16.66-0.477
	c12.767,3.34,22.542,10.883,30.871,20.764c1.471,1.744,3.374,3.418,5.429,4.33c12.562,5.584,18.422,16.814,23.94,28.234
	c4.417,9.143,8.77,18.293,14.86,26.467c1.019,1.369,1.177,2.67,0.954,4.178c-0.365,2.467-0.755,4.932-1.131,7.396
	c-1.085,7.115,1.341,10.59,8.603,11.852c2.815,0.488,5.82,0.295,6.167,4.236c0.026,0.301,0.238,0.717,0.486,0.848
	c7.543,3.973,11.958,10.824,16.391,17.682c0.837,1.295,1.768,1.51,3.667,1.111c1.992-0.42,5.577-2.277,6.696,2
	c0.109,0.416,1.284,1.02,1.506,0.867c5.577-3.811,7.478,1.785,8.833,4.451c3.663,7.211,6.328,14.947,7.541,23.061
	c0.203,1.357,0.381,2.789-0.806,3.695c-1.343,1.027-2.615-0.193-3.627-0.779c-7.283-4.227-15.411-3.479-23.204-3.434
	c-2.76,0.018-5.587,2.27-9.095,2.584c-6.192,0.551-12.209-0.266-18.302-0.357c-4.289-0.064-8.555-0.428-11.845,3.6
	c-1.444,1.768-3.61,1.518-5.237-0.992c-2.38-3.674-5.862-4.771-9.801-2.34c-1.44,0.891-2.745,1.139-4.217,0.555
	c-4.459-1.768-8.465-0.076-12.496,1.535c-1.107,0.441-2.327,0.869-2.063,2.365c0.976,5.533-3.044,4.27-5.934,4.313
	c-2.437,0.035-5.378-3.051-6.885,1.898c-0.343,1.127-3.987,0.041-6.105-0.201c-2.207-0.256-4.602-1.373-5.281,2.383
	c-0.335,1.854-2.632,1.258-3.895,1.072c-5.567-0.816-5.314,2.539-4.955,6.307c0.162,1.699,2.818,3.652-0.101,5.135
	c-2.507,1.273-4.802,1.207-7.257-0.928C188.152,214.598,185.297,213.186,181.581,214.438z"/>
</svg>
